<?xml version="1.0" encoding="utf-8"?>
<!-- Generator: Adobe Illustrator 15.1.0, SVG Export Plug-In . SVG Version: 6.00 Build 0)  -->
<!DOCTYPE svg PUBLIC "-//W3C//DTD SVG 1.1//EN" "http://www.w3.org/Graphics/SVG/1.1/DTD/svg11.dtd">
<svg version="1.1" id="Layer_1" xmlns="http://www.w3.org/2000/svg" xmlns:xlink="http://www.w3.org/1999/xlink" x="0px" y="0px"
	 width="9.334px" height="5.281px" viewBox="61.25 11.391 9.334 5.281" enable-background="new 61.25 11.391 9.334 5.281"
	 xml:space="preserve">
<g>
	<g transform="translate(56 4)">
		<path fill="none" d="M-0.089,20V0h19.999v20H-0.089z"/>
		<defs>
			<filter id="Adobe_OpacityMaskFilter" filterUnits="userSpaceOnUse" x="-0.089" y="0" width="19.999" height="20">
				<feColorMatrix  type="matrix" values="1 0 0 0 0  0 1 0 0 0  0 0 1 0 0  0 0 0 1 0"/>
			</filter>
		</defs>
		<mask maskUnits="userSpaceOnUse" x="-0.089" y="0" width="19.999" height="20" id="b">
			<g filter="url(#Adobe_OpacityMaskFilter)">
				<path id="a" fill="#FFFFFF" d="M5.531,12.404c-0.329-0.317-0.339-0.841-0.022-1.169c0.007-0.008,0.015-0.015,0.022-0.022
					l3.687-3.546c0.387-0.372,0.999-0.372,1.385,0l3.688,3.546c0.329,0.317,0.339,0.841,0.021,1.17
					c-0.007,0.007-0.014,0.015-0.021,0.021c-0.346,0.333-0.894,0.333-1.24,0L9.911,9.384l-3.142,3.021
					C6.422,12.737,5.875,12.737,5.531,12.404L5.531,12.404z"/>
			</g>
		</mask>
		<g mask="url(#b)">
			<path fill="#FF5000" d="M-0.089,20V0h19.999v20H-0.089z"/>
		</g>
	</g>
</g>
</svg>
