<?xml version="1.0" encoding="utf-8"?>
<!-- Generator: Adobe Illustrator 15.1.0, SVG Export Plug-In . SVG Version: 6.00 Build 0)  -->
<!DOCTYPE svg PUBLIC "-//W3C//DTD SVG 1.1//EN" "http://www.w3.org/Graphics/SVG/1.1/DTD/svg11.dtd">
<svg version="1.1" id="Layer_1" xmlns="http://www.w3.org/2000/svg" xmlns:xlink="http://www.w3.org/1999/xlink" x="0px" y="0px"
	 width="10.001px" height="18px" viewBox="113 271 10.001 18" enable-background="new 113 271 10.001 18" xml:space="preserve">
<g>
	<path fill="#1C1C1C" d="M286,1604H-738"/>
	<g transform="translate(108 270)">
		<path fill="none" d="M14.971,19H4.999V1h9.972V19z"/>
		<g>
			<path id="a_1_" fill="#666666" d="M6,1c0.266,0,0.52,0.105,0.707,0.293l8,8c0.001,0,0.001,0.001,0.001,0.001
				c0.391,0.391,0.39,1.023-0.001,1.413l-8,8c-0.391,0.391-1.023,0.391-1.414,0s-0.391-1.023,0-1.414L12.586,10L5.293,2.707
				c-0.189-0.188-0.295-0.444-0.294-0.71C5,1.445,5.448,0.999,6,1"/>
		</g>
		<defs>
			<filter id="Adobe_OpacityMaskFilter" filterUnits="userSpaceOnUse" x="5.016" y="1" width="9.972" height="18">
				<feColorMatrix  type="matrix" values="1 0 0 0 0  0 1 0 0 0  0 0 1 0 0  0 0 0 1 0"/>
			</filter>
		</defs>
		<mask maskUnits="userSpaceOnUse" x="5.016" y="1" width="9.972" height="18" id="b">
			<g filter="url(#Adobe_OpacityMaskFilter)">
				<path id="a" fill="#FFFFFF" d="M6,1c0.266,0,0.52,0.105,0.707,0.293l8,8c0.001,0,0.001,0.001,0.001,0.001
					c0.391,0.391,0.39,1.023-0.001,1.413l-8,8c-0.391,0.391-1.023,0.391-1.414,0s-0.391-1.023,0-1.414L12.586,10L5.293,2.707
					c-0.189-0.188-0.295-0.444-0.294-0.71C5,1.445,5.448,0.999,6,1"/>
			</g>
		</mask>
		<g mask="url(#b)">
			<path fill="#FFFFFF" d="M14.971,19H4.999V1h9.972V19z"/>
		</g>
	</g>
</g>
</svg>
