<?xml version="1.0" encoding="utf-8"?>
<!-- Generator: Adobe Illustrator 15.1.0, SVG Export Plug-In . SVG Version: 6.00 Build 0)  -->
<!DOCTYPE svg PUBLIC "-//W3C//DTD SVG 1.1//EN" "http://www.w3.org/Graphics/SVG/1.1/DTD/svg11.dtd">
<svg version="1.1" id="Layer_1" xmlns="http://www.w3.org/2000/svg" xmlns:xlink="http://www.w3.org/1999/xlink" x="0px" y="0px"
	 width="9.268px" height="5.268px" viewBox="0 0 9.268 5.268" enable-background="new 0 0 9.268 5.268" xml:space="preserve">
<g>
	<g transform="translate(56 4)">
		<g transform="matrix(0 -1 -1 0 20 20)">
			<path id="a_1_" fill="#CCCCCC" d="M23.749,66.986c-0.315-0.329-0.841-0.339-1.17-0.022c-0.006,0.008-0.014,0.016-0.021,0.022
				l-3.546,3.687c-0.372,0.388-0.372,1,0,1.388l3.546,3.688c0.314,0.329,0.841,0.339,1.17,0.021
				c0.007-0.008,0.014-0.016,0.021-0.021c0.333-0.346,0.333-0.895,0-1.239l-3.02-3.143l3.02-3.144
				C24.081,67.878,24.081,67.331,23.749,66.986L23.749,66.986z"/>
		</g>
	</g>
</g>
</svg>
