<?xml version="1.0" encoding="utf-8"?>
<!-- Generator: Adobe Illustrator 15.1.0, SVG Export Plug-In . SVG Version: 6.00 Build 0)  -->
<!DOCTYPE svg PUBLIC "-//W3C//DTD SVG 1.1//EN" "http://www.w3.org/Graphics/SVG/1.1/DTD/svg11.dtd">
<svg version="1.1" id="Layer_1" xmlns="http://www.w3.org/2000/svg" xmlns:xlink="http://www.w3.org/1999/xlink" x="0px" y="0px"
	 width="10.001px" height="18px" viewBox="113 271 10.001 18" enable-background="new 113 271 10.001 18" xml:space="preserve">
<g>
	<path fill="#1C1C1C" d="M286,1604H-738"/>
	<g transform="translate(108 270)">
		<path fill="none" d="M0,0h20v20H0V0z"/>
		<g>
			<path id="a_1_" fill="#666666" d="M14,1c0.552-0.001,1,0.445,1.001,0.997c0.001,0.267-0.104,0.522-0.294,0.71L7.414,10
				l7.293,7.293c0.391,0.391,0.391,1.023,0,1.414s-1.023,0.391-1.414,0l-8-8c-0.391-0.39-0.391-1.022-0.001-1.413
				c0,0,0,0,0.001-0.001l8-8C13.48,1.105,13.734,1,14,1"/>
		</g>
		<defs>
			<filter id="Adobe_OpacityMaskFilter" filterUnits="userSpaceOnUse" x="0" y="0" width="20" height="20">
				<feColorMatrix  type="matrix" values="1 0 0 0 0  0 1 0 0 0  0 0 1 0 0  0 0 0 1 0"/>
			</filter>
		</defs>
		<mask maskUnits="userSpaceOnUse" x="0" y="0" width="20" height="20" id="b">
			<g filter="url(#Adobe_OpacityMaskFilter)">
				<path id="a" fill="#FFFFFF" d="M14,1c0.552-0.001,1,0.445,1.001,0.997c0.001,0.267-0.104,0.522-0.294,0.71L7.414,10l7.293,7.293
					c0.391,0.391,0.391,1.023,0,1.414s-1.023,0.391-1.414,0l-8-8c-0.391-0.39-0.391-1.022-0.001-1.413c0,0,0,0,0.001-0.001l8-8
					C13.48,1.105,13.734,1,14,1"/>
			</g>
		</mask>
		<g mask="url(#b)">
			<path fill="#FFFFFF" d="M0,0h20v20H0V0z"/>
		</g>
	</g>
</g>
</svg>
