<?xml version="1.0" encoding="utf-8"?>
<!-- Generator: Adobe Illustrator 15.1.0, SVG Export Plug-In . SVG Version: 6.00 Build 0)  -->
<!DOCTYPE svg PUBLIC "-//W3C//DTD SVG 1.1//EN" "http://www.w3.org/Graphics/SVG/1.1/DTD/svg11.dtd">
<svg version="1.1" id="Layer_1" xmlns="http://www.w3.org/2000/svg" xmlns:xlink="http://www.w3.org/1999/xlink" x="0px" y="0px"
	 width="36px" height="36px" viewBox="70 100 36 36" enable-background="new 70 100 36 36" xml:space="preserve">
<g>
	<g transform="translate(70 100)">
		<defs>
			<filter id="Adobe_OpacityMaskFilter" filterUnits="userSpaceOnUse" x="0" y="0" width="36" height="36">
				<feColorMatrix  type="matrix" values="1 0 0 0 0  0 1 0 0 0  0 0 1 0 0  0 0 0 1 0"/>
			</filter>
		</defs>
		<mask maskUnits="userSpaceOnUse" x="0" y="0" width="36" height="36" id="b">
			<g filter="url(#Adobe_OpacityMaskFilter)">
				<circle id="a" fill="#FFFFFF" cx="18" cy="18" r="18"/>
			</g>
		</mask>
		<g mask="url(#b)">
			<path fill-opacity="0.4" d="M0,0h36v36H0V0z"/>
		</g>
		<path fill="none" stroke="#979797" d="M22.616,14h-9.232l2.208-3.824c0.069-0.12,0.028-0.273-0.092-0.342
			s-0.273-0.028-0.342,0.092L12.807,14H9.75c-0.138,0-0.25,0.112-0.25,0.25s0.112,0.25,0.25,0.25h16.5c0.138,0,0.25-0.112,0.25-0.25
			S26.388,14,26.25,14h-3.057l-2.351-4.074c-0.069-0.12-0.222-0.161-0.342-0.092s-0.161,0.222-0.092,0.342l0,0L22.616,14z M10.18,17
			c-0.276,0-0.5,0.224-0.5,0.5c0,0.028,0.002,0.055,0.007,0.082l1.167,7C10.894,24.823,11.103,25,11.347,25h13.306
			c0.245,0,0.453-0.177,0.493-0.418l1.167-7c0.045-0.272-0.139-0.53-0.411-0.575C25.875,17.002,25.847,17,25.82,17H10.18z"/>
		<defs>
			<filter id="Adobe_OpacityMaskFilter_1_" filterUnits="userSpaceOnUse" x="0" y="0" width="36" height="36">
				<feColorMatrix  type="matrix" values="1 0 0 0 0  0 1 0 0 0  0 0 1 0 0  0 0 0 1 0"/>
			</filter>
		</defs>
		<mask maskUnits="userSpaceOnUse" x="0" y="0" width="36" height="36" id="d">
			<g filter="url(#Adobe_OpacityMaskFilter_1_)">
				<path id="c" fill="#FFFFFF" d="M14.25,13.5h7.5l-1.775-3.074c-0.207-0.359-0.084-0.818,0.275-1.025s0.818-0.084,1.025,0.275
					l2.207,3.824h2.768c0.414,0,0.75,0.336,0.75,0.75S26.664,15,26.25,15H9.75C9.336,15,9,14.664,9,14.25s0.336-0.75,0.75-0.75
					h2.768l2.207-3.824c0.207-0.359,0.666-0.482,1.025-0.275s0.482,0.666,0.275,1.025L14.25,13.5z M10.18,16.5h15.64
					c0.552,0,1,0.448,1,1c0,0.055-0.004,0.109-0.013,0.164l-1.167,7c-0.08,0.482-0.498,0.836-0.986,0.836H11.347
					c-0.489,0-0.906-0.354-0.986-0.836l-1.167-7c-0.09-0.545,0.278-1.06,0.823-1.15C10.07,16.504,10.125,16.5,10.18,16.5z"/>
			</g>
		</mask>
		<g mask="url(#d)">
			<path fill="#FFFFFF" d="M0,0h36v36H0V0z"/>
		</g>
	</g>
</g>
</svg>
