<?xml version="1.0" encoding="utf-8"?>
<!-- Generator: Adobe Illustrator 15.1.0, SVG Export Plug-In . SVG Version: 6.00 Build 0)  -->
<!DOCTYPE svg PUBLIC "-//W3C//DTD SVG 1.1//EN" "http://www.w3.org/Graphics/SVG/1.1/DTD/svg11.dtd">
<svg version="1.1" id="Layer_1" xmlns="http://www.w3.org/2000/svg" xmlns:xlink="http://www.w3.org/1999/xlink" x="0px" y="0px"
	 width="16px" height="16px" viewBox="100 100 16 16" enable-background="new 100 100 16 16" xml:space="preserve">
<g>
	<g transform="translate(100 100)">
		<g>
			<circle id="a_1_" fill="#FFFFFF" cx="8" cy="8" r="8"/>
		</g>
		<defs>
			<filter id="Adobe_OpacityMaskFilter" filterUnits="userSpaceOnUse" x="0" y="0" width="16" height="16">
				<feColorMatrix  type="matrix" values="1 0 0 0 0  0 1 0 0 0  0 0 1 0 0  0 0 0 1 0"/>
			</filter>
		</defs>
		<mask maskUnits="userSpaceOnUse" x="0" y="0" width="16" height="16" id="b">
			<g filter="url(#Adobe_OpacityMaskFilter)">
				<circle id="a" fill="#FFFFFF" cx="8" cy="8" r="8"/>
			</g>
		</mask>
		<g mask="url(#b)">
			<path fill="#333333" d="M0,0h16v16H0V0z"/>
		</g>
		<g>
			<path id="c_1_" d="M7.5,6.331H6.334V6.077c0-0.257-0.063-0.48-0.188-0.668C6.02,5.221,5.809,5.127,5.511,5.127
				c-0.16,0-0.29,0.03-0.388,0.088c-0.095,0.056-0.177,0.131-0.24,0.221c-0.063,0.1-0.105,0.21-0.126,0.326
				C4.734,5.888,4.723,6.016,4.723,6.144c0,0.154,0.006,0.283,0.017,0.386c0.011,0.104,0.04,0.196,0.086,0.277
				c0.049,0.084,0.118,0.157,0.2,0.21c0.087,0.059,0.207,0.117,0.36,0.176l0.891,0.343c0.26,0.096,0.469,0.208,0.629,0.337
				c0.16,0.129,0.285,0.278,0.377,0.447c0.084,0.177,0.14,0.378,0.171,0.603C7.484,9.146,7.5,9.402,7.5,9.691
				c0,0.33-0.034,0.639-0.103,0.922c-0.058,0.262-0.171,0.508-0.331,0.724c-0.16,0.206-0.37,0.368-0.629,0.486S5.862,12,5.49,12
				c-0.282,0-0.545-0.048-0.789-0.145c-0.466-0.178-0.842-0.533-1.046-0.988c-0.104-0.23-0.156-0.481-0.154-0.734v-0.42h1.166v0.354
				c-0.001,0.201,0.064,0.398,0.188,0.558c0.126,0.166,0.337,0.249,0.635,0.249c0.198,0,0.352-0.028,0.462-0.083
				c0.107-0.052,0.197-0.135,0.258-0.238c0.064-0.113,0.101-0.239,0.108-0.37c0.025-0.329,0.023-0.66-0.006-0.988
				c-0.009-0.111-0.04-0.221-0.091-0.32C6.167,8.791,6.095,8.723,6.01,8.674C5.898,8.61,5.781,8.555,5.661,8.508L4.827,8.177
				c-0.503-0.2-0.84-0.462-1.012-0.79C3.644,7.059,3.558,6.648,3.558,6.155c0-0.295,0.042-0.575,0.126-0.84
				C3.761,5.063,3.889,4.83,4.061,4.63c0.16-0.192,0.364-0.345,0.611-0.459C4.951,4.051,5.253,3.992,5.557,4
				c0.29,0,0.554,0.052,0.794,0.155c0.24,0.103,0.448,0.24,0.623,0.409C7.324,4.917,7.5,5.322,7.5,5.779V6.331z M12.5,9.691v0.485
				c0,0.243-0.05,0.474-0.152,0.69c-0.1,0.218-0.24,0.41-0.418,0.58c-0.377,0.355-0.875,0.554-1.394,0.553
				c-0.241,0-0.481-0.03-0.716-0.088c-0.236-0.057-0.459-0.162-0.653-0.311c-0.199-0.152-0.362-0.347-0.479-0.568
				C8.563,10.801,8.5,10.505,8.5,10.143v-4.33c0-0.259,0.048-0.498,0.145-0.72c0.098-0.22,0.235-0.412,0.414-0.574
				c0.176-0.162,0.389-0.289,0.635-0.38C9.939,4.046,10.214,4,10.512,4c0.582,0,1.055,0.173,1.418,0.52
				c0.178,0.169,0.317,0.37,0.418,0.602C12.449,5.354,12.5,5.606,12.5,5.878V6.32h-1.236V5.945c0.004-0.21-0.068-0.415-0.205-0.575
				C10.92,5.207,10.713,5.118,10.5,5.127c-0.307,0-0.512,0.087-0.611,0.26C9.787,5.56,9.736,5.779,9.736,6.044v4.022
				c0,0.229,0.055,0.42,0.164,0.574c0.109,0.155,0.305,0.232,0.588,0.232c0.08,0,0.168-0.014,0.26-0.039
				c0.094-0.026,0.182-0.069,0.261-0.127c0.079-0.066,0.141-0.149,0.183-0.243c0.052-0.122,0.076-0.254,0.072-0.387V9.691H12.5z"/>
		</g>
		<defs>
			<filter id="Adobe_OpacityMaskFilter_1_" filterUnits="userSpaceOnUse" x="0" y="0" width="16" height="16">
				<feColorMatrix  type="matrix" values="1 0 0 0 0  0 1 0 0 0  0 0 1 0 0  0 0 0 1 0"/>
			</filter>
		</defs>
		<mask maskUnits="userSpaceOnUse" x="0" y="0" width="16" height="16" id="d">
			<g filter="url(#Adobe_OpacityMaskFilter_1_)">
				<path id="c" fill="#FFFFFF" d="M7.5,6.331H6.334V6.077c0-0.257-0.063-0.48-0.188-0.668C6.02,5.221,5.809,5.127,5.511,5.127
					c-0.16,0-0.29,0.03-0.388,0.088c-0.095,0.056-0.177,0.131-0.24,0.221c-0.063,0.1-0.105,0.21-0.126,0.326
					C4.734,5.888,4.723,6.016,4.723,6.144c0,0.154,0.006,0.283,0.017,0.386c0.011,0.104,0.04,0.196,0.086,0.277
					c0.049,0.084,0.118,0.157,0.2,0.21c0.087,0.059,0.207,0.117,0.36,0.176l0.891,0.343c0.26,0.096,0.469,0.208,0.629,0.337
					c0.16,0.129,0.285,0.278,0.377,0.447c0.084,0.177,0.14,0.378,0.171,0.603C7.484,9.146,7.5,9.402,7.5,9.691
					c0,0.33-0.034,0.639-0.103,0.922c-0.058,0.262-0.171,0.508-0.331,0.724c-0.16,0.206-0.37,0.368-0.629,0.486S5.862,12,5.49,12
					c-0.282,0-0.545-0.048-0.789-0.145c-0.466-0.178-0.842-0.533-1.046-0.988c-0.104-0.23-0.156-0.481-0.154-0.734v-0.42h1.166
					v0.354c-0.001,0.201,0.064,0.398,0.188,0.558c0.126,0.166,0.337,0.249,0.635,0.249c0.198,0,0.352-0.028,0.462-0.083
					c0.107-0.052,0.197-0.135,0.258-0.238c0.064-0.113,0.101-0.239,0.108-0.37c0.025-0.329,0.023-0.66-0.006-0.988
					c-0.009-0.111-0.04-0.221-0.091-0.32C6.167,8.791,6.095,8.723,6.01,8.674C5.898,8.61,5.781,8.555,5.661,8.508L4.827,8.177
					c-0.503-0.2-0.84-0.462-1.012-0.79C3.644,7.059,3.558,6.648,3.558,6.155c0-0.295,0.042-0.575,0.126-0.84
					C3.761,5.063,3.889,4.83,4.061,4.63c0.16-0.192,0.364-0.345,0.611-0.459C4.951,4.051,5.253,3.992,5.557,4
					c0.29,0,0.554,0.052,0.794,0.155c0.24,0.103,0.448,0.24,0.623,0.409C7.324,4.917,7.5,5.322,7.5,5.779V6.331z M12.5,9.691v0.485
					c0,0.243-0.05,0.474-0.152,0.69c-0.1,0.218-0.24,0.41-0.418,0.58c-0.377,0.355-0.875,0.554-1.394,0.553
					c-0.241,0-0.481-0.03-0.716-0.088c-0.236-0.057-0.459-0.162-0.653-0.311c-0.199-0.152-0.362-0.347-0.479-0.568
					C8.563,10.801,8.5,10.505,8.5,10.143v-4.33c0-0.259,0.048-0.498,0.145-0.72c0.098-0.22,0.235-0.412,0.414-0.574
					c0.176-0.162,0.389-0.289,0.635-0.38C9.939,4.046,10.214,4,10.512,4c0.582,0,1.055,0.173,1.418,0.52
					c0.178,0.169,0.317,0.37,0.418,0.602C12.449,5.354,12.5,5.606,12.5,5.878V6.32h-1.236V5.945c0.004-0.21-0.068-0.415-0.205-0.575
					C10.92,5.207,10.713,5.118,10.5,5.127c-0.307,0-0.512,0.087-0.611,0.26C9.787,5.56,9.736,5.779,9.736,6.044v4.022
					c0,0.229,0.055,0.42,0.164,0.574c0.109,0.155,0.305,0.232,0.588,0.232c0.08,0,0.168-0.014,0.26-0.039
					c0.094-0.026,0.182-0.069,0.261-0.127c0.079-0.066,0.141-0.149,0.183-0.243c0.052-0.122,0.076-0.254,0.072-0.387V9.691H12.5z"/>
			</g>
		</mask>
		<g mask="url(#d)">
			<path fill="#FFFFFF" d="M0,0h16v16H0V0z"/>
		</g>
	</g>
</g>
</svg>
