<?xml version="1.0" encoding="utf-8"?>
<!-- Generator: Adobe Illustrator 15.1.0, SVG Export Plug-In . SVG Version: 6.00 Build 0)  -->
<!DOCTYPE svg PUBLIC "-//W3C//DTD SVG 1.1//EN" "http://www.w3.org/Graphics/SVG/1.1/DTD/svg11.dtd">
<svg version="1.1" id="Layer_1" xmlns="http://www.w3.org/2000/svg" xmlns:xlink="http://www.w3.org/1999/xlink" x="0px" y="0px"
	 width="24px" height="24px" viewBox="0 0 24 24" enable-background="new 0 0 24 24" xml:space="preserve">
<g>
	<g transform="translate(100 100)">
		<g>
			<circle id="a_1_" fill="#FFC100" cx="-88" cy="-88" r="12"/>
		</g>
		<defs>
			<filter id="Adobe_OpacityMaskFilter" filterUnits="userSpaceOnUse" x="-100" y="-100" width="24" height="24">
				<feColorMatrix  type="matrix" values="1 0 0 0 0  0 1 0 0 0  0 0 1 0 0  0 0 0 1 0"/>
			</filter>
		</defs>
		<mask maskUnits="userSpaceOnUse" x="-100" y="-100" width="24" height="24" id="b">
			<g filter="url(#Adobe_OpacityMaskFilter)">
				<circle id="a" fill="#FFFFFF" cx="-88" cy="-88" r="12"/>
			</g>
		</mask>
		<g mask="url(#b)">
			<path fill="#FFFFFF" d="M-100-100h24v24h-24V-100z"/>
		</g>
		<g>
			<path id="c_1_" d="M-89-90.503h-1.749v-0.381c0.009-0.355-0.089-0.705-0.282-1.003c-0.189-0.282-0.506-0.422-0.951-0.422
				c-0.24,0-0.435,0.043-0.584,0.132c-0.142,0.083-0.266,0.196-0.359,0.332c-0.094,0.149-0.157,0.315-0.188,0.489
				c-0.035,0.188-0.054,0.379-0.053,0.57c0,0.233,0.009,0.426,0.025,0.58c0.018,0.155,0.061,0.293,0.129,0.415
				c0.074,0.127,0.178,0.235,0.301,0.315c0.131,0.088,0.311,0.177,0.54,0.265l1.337,0.515c0.389,0.144,0.703,0.312,0.943,0.504
				c0.24,0.194,0.428,0.418,0.564,0.672c0.126,0.266,0.213,0.566,0.258,0.903S-89-85.895-89-85.464c0,0.497-0.051,0.958-0.154,1.384
				c-0.088,0.393-0.257,0.764-0.496,1.086c-0.24,0.309-0.556,0.553-0.943,0.729C-90.982-82.088-91.457-82-92.018-82
				c-0.422,0-0.816-0.072-1.183-0.215c-0.698-0.268-1.263-0.803-1.569-1.485c-0.155-0.345-0.233-0.721-0.23-1.1v-0.63h1.749v0.529
				c0,0.312,0.094,0.59,0.282,0.838c0.189,0.25,0.506,0.373,0.951,0.373c0.297,0,0.529-0.041,0.695-0.125
				c0.16-0.078,0.295-0.201,0.385-0.354c0.092-0.155,0.146-0.34,0.164-0.558c0.017-0.215,0.024-0.455,0.024-0.719
				c0-0.311-0.011-0.563-0.034-0.764c-0.014-0.168-0.06-0.33-0.137-0.48c-0.081-0.123-0.189-0.225-0.316-0.299
				c-0.168-0.095-0.344-0.178-0.523-0.248l-1.252-0.498c-0.754-0.298-1.26-0.692-1.518-1.185c-0.257-0.492-0.385-1.108-0.385-1.849
				c0-0.441,0.063-0.861,0.188-1.26c0.127-0.396,0.315-0.74,0.566-1.027c0.24-0.287,0.547-0.516,0.917-0.688
				C-92.87-93.914-92.43-94-91.914-94c0.434,0,0.831,0.077,1.191,0.232c0.359,0.154,0.672,0.359,0.934,0.612
				c0.525,0.53,0.789,1.138,0.789,1.824V-90.503z M-81-85.464v0.729c0,0.363-0.076,0.711-0.227,1.034
				c-0.152,0.326-0.36,0.616-0.629,0.87c-0.271,0.258-0.59,0.463-0.937,0.604C-83.148-82.074-83.533-82-83.945-82
				c-0.361-0.002-0.722-0.046-1.072-0.133c-0.355-0.085-0.69-0.243-0.981-0.465c-0.298-0.229-0.543-0.521-0.718-0.854
				C-86.906-83.798-87-84.243-87-84.785v-6.497c0-0.387,0.072-0.745,0.218-1.077s0.353-0.619,0.618-0.861
				c0.268-0.243,0.585-0.435,0.955-0.572C-84.839-93.932-84.43-94-83.982-94c0.873,0,1.582,0.26,2.127,0.779
				c0.269,0.254,0.478,0.555,0.629,0.902C-81.076-91.97-81-91.591-81-91.182v0.662h-1.855v-0.563
				c0.006-0.315-0.104-0.622-0.309-0.862c-0.206-0.242-0.484-0.363-0.836-0.363c-0.46,0-0.768,0.129-0.918,0.39
				c-0.152,0.259-0.227,0.588-0.227,0.985v6.033c0,0.344,0.08,0.631,0.244,0.862s0.459,0.349,0.883,0.349
				c0.121,0,0.25-0.02,0.39-0.059c0.14-0.038,0.271-0.102,0.392-0.189c0.109-0.09,0.2-0.211,0.272-0.364
				c0.073-0.155,0.11-0.349,0.11-0.58v-0.58L-81-85.464L-81-85.464z"/>
		</g>
		<defs>
			<filter id="Adobe_OpacityMaskFilter_1_" filterUnits="userSpaceOnUse" x="-100" y="-100" width="24" height="24">
				<feColorMatrix  type="matrix" values="1 0 0 0 0  0 1 0 0 0  0 0 1 0 0  0 0 0 1 0"/>
			</filter>
		</defs>
		<mask maskUnits="userSpaceOnUse" x="-100" y="-100" width="24" height="24" id="d">
			<g filter="url(#Adobe_OpacityMaskFilter_1_)">
				<path id="c" fill="#FFFFFF" d="M-89-90.503h-1.749v-0.381c0.009-0.355-0.089-0.705-0.282-1.003
					c-0.189-0.282-0.506-0.422-0.951-0.422c-0.24,0-0.435,0.043-0.584,0.132c-0.142,0.083-0.266,0.196-0.359,0.332
					c-0.094,0.149-0.157,0.315-0.188,0.489c-0.035,0.188-0.054,0.379-0.053,0.57c0,0.233,0.009,0.426,0.025,0.58
					c0.018,0.155,0.061,0.293,0.129,0.415c0.074,0.127,0.178,0.235,0.301,0.315c0.131,0.088,0.311,0.177,0.54,0.265l1.337,0.515
					c0.389,0.144,0.703,0.312,0.943,0.504c0.24,0.194,0.428,0.418,0.564,0.672c0.126,0.266,0.213,0.566,0.258,0.903
					S-89-85.895-89-85.464c0,0.497-0.051,0.958-0.154,1.384c-0.088,0.393-0.257,0.764-0.496,1.086
					c-0.24,0.309-0.556,0.553-0.943,0.729C-90.982-82.088-91.457-82-92.018-82c-0.422,0-0.816-0.072-1.183-0.215
					c-0.698-0.268-1.263-0.803-1.569-1.485c-0.155-0.345-0.233-0.721-0.23-1.1v-0.63h1.749v0.529c0,0.312,0.094,0.59,0.282,0.838
					c0.189,0.25,0.506,0.373,0.951,0.373c0.297,0,0.529-0.041,0.695-0.125c0.16-0.078,0.295-0.201,0.385-0.354
					c0.092-0.155,0.146-0.34,0.164-0.558c0.017-0.215,0.024-0.455,0.024-0.719c0-0.311-0.011-0.563-0.034-0.764
					c-0.014-0.168-0.06-0.33-0.137-0.48c-0.081-0.123-0.189-0.225-0.316-0.299c-0.168-0.095-0.344-0.178-0.523-0.248l-1.252-0.498
					c-0.754-0.298-1.26-0.692-1.518-1.185c-0.257-0.492-0.385-1.108-0.385-1.849c0-0.441,0.063-0.861,0.188-1.26
					c0.127-0.396,0.315-0.74,0.566-1.027c0.24-0.287,0.547-0.516,0.917-0.688C-92.87-93.914-92.43-94-91.914-94
					c0.434,0,0.831,0.077,1.191,0.232c0.359,0.154,0.672,0.359,0.934,0.612c0.525,0.53,0.789,1.138,0.789,1.824V-90.503z
					 M-81-85.464v0.729c0,0.363-0.076,0.711-0.227,1.034c-0.152,0.326-0.36,0.616-0.629,0.87c-0.271,0.258-0.59,0.463-0.937,0.604
					C-83.148-82.074-83.533-82-83.945-82c-0.361-0.002-0.722-0.046-1.072-0.133c-0.355-0.085-0.69-0.243-0.981-0.465
					c-0.298-0.229-0.543-0.521-0.718-0.854C-86.906-83.798-87-84.243-87-84.785v-6.497c0-0.387,0.072-0.745,0.218-1.077
					s0.353-0.619,0.618-0.861c0.268-0.243,0.585-0.435,0.955-0.572C-84.839-93.932-84.43-94-83.982-94
					c0.873,0,1.582,0.26,2.127,0.779c0.269,0.254,0.478,0.555,0.629,0.902C-81.076-91.97-81-91.591-81-91.182v0.662h-1.855v-0.563
					c0.006-0.315-0.104-0.622-0.309-0.862c-0.206-0.242-0.484-0.363-0.836-0.363c-0.46,0-0.768,0.129-0.918,0.39
					c-0.152,0.259-0.227,0.588-0.227,0.985v6.033c0,0.344,0.08,0.631,0.244,0.862s0.459,0.349,0.883,0.349
					c0.121,0,0.25-0.02,0.39-0.059c0.14-0.038,0.271-0.102,0.392-0.189c0.109-0.09,0.2-0.211,0.272-0.364
					c0.073-0.155,0.11-0.349,0.11-0.58v-0.58L-81-85.464L-81-85.464z"/>
			</g>
		</mask>
		<g mask="url(#d)">
			<path fill="#333333" d="M-100-100h24v24h-24V-100z"/>
		</g>
	</g>
</g>
</svg>
