<?xml version="1.0" encoding="utf-8"?>
<!-- Generator: Adobe Illustrator 15.1.0, SVG Export Plug-In . SVG Version: 6.00 Build 0)  -->
<!DOCTYPE svg PUBLIC "-//W3C//DTD SVG 1.1//EN" "http://www.w3.org/Graphics/SVG/1.1/DTD/svg11.dtd">
<svg version="1.1" id="Layer_1" xmlns="http://www.w3.org/2000/svg" xmlns:xlink="http://www.w3.org/1999/xlink" x="0px" y="0px"
	 width="16px" height="16px" viewBox="0 0 16 16" enable-background="new 0 0 16 16" xml:space="preserve">
<g>
	<g transform="translate(100 100)">
		<g>
			<circle id="a_1_" fill="#FFFFFF" cx="-92" cy="-92" r="8"/>
		</g>
		<defs>
			<filter id="Adobe_OpacityMaskFilter" filterUnits="userSpaceOnUse" x="-100" y="-100" width="16" height="16">
				<feColorMatrix  type="matrix" values="1 0 0 0 0  0 1 0 0 0  0 0 1 0 0  0 0 0 1 0"/>
			</filter>
		</defs>
		<mask maskUnits="userSpaceOnUse" x="-100" y="-100" width="16" height="16" id="b">
			<g filter="url(#Adobe_OpacityMaskFilter)">
				<circle id="a" fill="#FFFFFF" cx="-92" cy="-92" r="8"/>
			</g>
		</mask>
		<g mask="url(#b)">
			<path fill="#FFFFFF" d="M-100-100h16v16h-16V-100z"/>
		</g>
		<g>
			<path id="c_1_" d="M-92.5-93.669h-1.166v-0.254c0-0.257-0.063-0.479-0.188-0.668c-0.127-0.188-0.338-0.282-0.635-0.282
				c-0.16,0-0.291,0.03-0.389,0.088c-0.096,0.057-0.178,0.131-0.24,0.221c-0.063,0.101-0.105,0.211-0.126,0.326
				c-0.022,0.127-0.034,0.254-0.034,0.383c0,0.153,0.006,0.282,0.019,0.386c0.011,0.104,0.038,0.196,0.086,0.276
				c0.049,0.084,0.116,0.157,0.198,0.211c0.088,0.059,0.207,0.116,0.361,0.176l0.891,0.343c0.261,0.096,0.47,0.208,0.63,0.337
				c0.159,0.129,0.284,0.277,0.376,0.447c0.084,0.177,0.14,0.378,0.171,0.603c0.03,0.224,0.046,0.479,0.046,0.769
				c0,0.33-0.034,0.639-0.104,0.922c-0.059,0.262-0.17,0.508-0.33,0.724c-0.16,0.206-0.371,0.368-0.629,0.486
				C-93.822-88.059-94.139-88-94.51-88c-0.282,0-0.545-0.048-0.789-0.145c-0.467-0.179-0.842-0.533-1.047-0.988
				c-0.104-0.23-0.156-0.481-0.153-0.734v-0.42h1.166v0.354c-0.001,0.201,0.063,0.398,0.188,0.559
				c0.125,0.166,0.336,0.249,0.635,0.249c0.197,0,0.352-0.028,0.462-0.083c0.106-0.052,0.196-0.135,0.258-0.238
				c0.063-0.113,0.101-0.238,0.108-0.369c0.023-0.33,0.021-0.66-0.006-0.988c-0.01-0.111-0.041-0.221-0.092-0.32
				c-0.054-0.084-0.125-0.152-0.211-0.201c-0.111-0.064-0.229-0.119-0.349-0.166l-0.834-0.331c-0.503-0.2-0.841-0.462-1.013-0.79
				c-0.17-0.328-0.256-0.738-0.256-1.231c0-0.296,0.041-0.575,0.125-0.841c0.078-0.252,0.205-0.484,0.377-0.685
				c0.16-0.192,0.364-0.345,0.611-0.459c0.279-0.12,0.581-0.179,0.885-0.171c0.291,0,0.555,0.052,0.795,0.155
				c0.239,0.103,0.447,0.239,0.623,0.409c0.35,0.353,0.525,0.758,0.525,1.215V-93.669z M-87.5-90.309v0.484
				c0,0.243-0.05,0.475-0.152,0.69c-0.1,0.218-0.24,0.409-0.418,0.579c-0.377,0.355-0.875,0.555-1.394,0.554
				c-0.241,0-0.481-0.03-0.716-0.088c-0.236-0.058-0.459-0.162-0.653-0.312c-0.199-0.151-0.362-0.347-0.479-0.567
				c-0.125-0.231-0.188-0.527-0.188-0.89v-4.33c0-0.258,0.048-0.498,0.145-0.72c0.099-0.22,0.235-0.411,0.414-0.573
				c0.176-0.162,0.389-0.289,0.635-0.381C-90.061-95.954-89.786-96-89.488-96c0.582,0,1.055,0.173,1.418,0.52
				c0.178,0.17,0.317,0.371,0.418,0.603c0.102,0.231,0.152,0.483,0.152,0.756v0.442h-1.236v-0.375
				c0.004-0.211-0.068-0.415-0.205-0.575c-0.139-0.163-0.346-0.252-0.559-0.243c-0.307,0-0.512,0.087-0.611,0.26
				c-0.102,0.174-0.152,0.393-0.152,0.657v4.022c0,0.229,0.055,0.42,0.164,0.574c0.108,0.154,0.305,0.231,0.588,0.231
				c0.08,0,0.168-0.015,0.26-0.039c0.094-0.026,0.182-0.069,0.261-0.127c0.079-0.065,0.142-0.149,0.183-0.243
				c0.053-0.122,0.076-0.254,0.072-0.387v-0.385H-87.5z"/>
		</g>
		<defs>
			<filter id="Adobe_OpacityMaskFilter_1_" filterUnits="userSpaceOnUse" x="-100" y="-100" width="16" height="16">
				<feColorMatrix  type="matrix" values="1 0 0 0 0  0 1 0 0 0  0 0 1 0 0  0 0 0 1 0"/>
			</filter>
		</defs>
		<mask maskUnits="userSpaceOnUse" x="-100" y="-100" width="16" height="16" id="d">
			<g filter="url(#Adobe_OpacityMaskFilter_1_)">
				<path id="c" fill="#FFFFFF" d="M-92.5-93.669h-1.166v-0.254c0-0.257-0.063-0.479-0.188-0.668
					c-0.127-0.188-0.338-0.282-0.635-0.282c-0.16,0-0.291,0.03-0.389,0.088c-0.096,0.057-0.178,0.131-0.24,0.221
					c-0.063,0.101-0.105,0.211-0.126,0.326c-0.022,0.127-0.034,0.254-0.034,0.383c0,0.153,0.006,0.282,0.019,0.386
					c0.011,0.104,0.038,0.196,0.086,0.276c0.049,0.084,0.116,0.157,0.198,0.211c0.088,0.059,0.207,0.116,0.361,0.176l0.891,0.343
					c0.261,0.096,0.47,0.208,0.63,0.337c0.159,0.129,0.284,0.277,0.376,0.447c0.084,0.177,0.14,0.378,0.171,0.603
					c0.03,0.224,0.046,0.479,0.046,0.769c0,0.33-0.034,0.639-0.104,0.922c-0.059,0.262-0.17,0.508-0.33,0.724
					c-0.16,0.206-0.371,0.368-0.629,0.486C-93.822-88.059-94.139-88-94.51-88c-0.282,0-0.545-0.048-0.789-0.145
					c-0.467-0.179-0.842-0.533-1.047-0.988c-0.104-0.23-0.156-0.481-0.153-0.734v-0.42h1.166v0.354
					c-0.001,0.201,0.063,0.398,0.188,0.559c0.125,0.166,0.336,0.249,0.635,0.249c0.197,0,0.352-0.028,0.462-0.083
					c0.106-0.052,0.196-0.135,0.258-0.238c0.063-0.113,0.101-0.238,0.108-0.369c0.023-0.33,0.021-0.66-0.006-0.988
					c-0.01-0.111-0.041-0.221-0.092-0.32c-0.054-0.084-0.125-0.152-0.211-0.201c-0.111-0.064-0.229-0.119-0.349-0.166l-0.834-0.331
					c-0.503-0.2-0.841-0.462-1.013-0.79c-0.17-0.328-0.256-0.738-0.256-1.231c0-0.296,0.041-0.575,0.125-0.841
					c0.078-0.252,0.205-0.484,0.377-0.685c0.16-0.192,0.364-0.345,0.611-0.459c0.279-0.12,0.581-0.179,0.885-0.171
					c0.291,0,0.555,0.052,0.795,0.155c0.239,0.103,0.447,0.239,0.623,0.409c0.35,0.353,0.525,0.758,0.525,1.215V-93.669z
					 M-87.5-90.309v0.484c0,0.243-0.05,0.475-0.152,0.69c-0.1,0.218-0.24,0.409-0.418,0.579c-0.377,0.355-0.875,0.555-1.394,0.554
					c-0.241,0-0.481-0.03-0.716-0.088c-0.236-0.058-0.459-0.162-0.653-0.312c-0.199-0.151-0.362-0.347-0.479-0.567
					c-0.125-0.231-0.188-0.527-0.188-0.89v-4.33c0-0.258,0.048-0.498,0.145-0.72c0.099-0.22,0.235-0.411,0.414-0.573
					c0.176-0.162,0.389-0.289,0.635-0.381C-90.061-95.954-89.786-96-89.488-96c0.582,0,1.055,0.173,1.418,0.52
					c0.178,0.17,0.317,0.371,0.418,0.603c0.102,0.231,0.152,0.483,0.152,0.756v0.442h-1.236v-0.375
					c0.004-0.211-0.068-0.415-0.205-0.575c-0.139-0.163-0.346-0.252-0.559-0.243c-0.307,0-0.512,0.087-0.611,0.26
					c-0.102,0.174-0.152,0.393-0.152,0.657v4.022c0,0.229,0.055,0.42,0.164,0.574c0.108,0.154,0.305,0.231,0.588,0.231
					c0.08,0,0.168-0.015,0.26-0.039c0.094-0.026,0.182-0.069,0.261-0.127c0.079-0.065,0.142-0.149,0.183-0.243
					c0.053-0.122,0.076-0.254,0.072-0.387v-0.385H-87.5z"/>
			</g>
		</mask>
		<g mask="url(#d)">
			<path fill="#333333" d="M-100-100h16v16h-16V-100z"/>
		</g>
	</g>
</g>
</svg>
