<svg xmlns="http://www.w3.org/2000/svg" xmlns:xlink="http://www.w3.org/1999/xlink" width="24" height="24" viewBox="0 0 24 24">
    <defs>
        <circle id="a" cx="12" cy="12" r="12"/>
        <path id="c" d="M11 9.497H9.251v-.381a1.76 1.76 0 0 0-.282-1.003c-.189-.282-.506-.422-.952-.422-.24 0-.434.044-.583.132a1.134 1.134 0 0 0-.36.332 1.374 1.374 0 0 0-.188.489 3.09 3.09 0 0 0-.052.571c0 .233.009.426.026.58.017.155.06.293.129.415a.934.934 0 0 0 .3.315c.131.088.311.177.54.265l1.337.514c.388.144.703.312.943.505.24.194.428.418.565.672.126.265.212.566.257.903.046.337.069.721.069 1.152 0 .497-.051.958-.154 1.384a2.87 2.87 0 0 1-.497 1.086c-.24.309-.555.552-.943.729-.389.177-.863.265-1.423.265-.423 0-.817-.072-1.183-.215A2.824 2.824 0 0 1 5.231 16.3 2.616 2.616 0 0 1 5 15.2v-.63h1.749v.53c0 .31.094.589.282.837.189.25.506.373.952.373.297 0 .528-.041.694-.124a.91.91 0 0 0 .386-.356c.091-.155.146-.34.163-.556.017-.215.025-.455.025-.72 0-.31-.011-.564-.034-.763a1.28 1.28 0 0 0-.137-.48.95.95 0 0 0-.317-.299 4.123 4.123 0 0 0-.523-.249l-1.251-.497c-.755-.298-1.26-.693-1.518-1.185-.257-.492-.385-1.108-.385-1.848 0-.442.063-.862.188-1.26.126-.397.315-.74.566-1.027.24-.288.546-.517.917-.688C7.13 6.086 7.571 6 8.086 6c.434 0 .831.077 1.191.232.36.155.672.36.934.613.526.53.789 1.138.789 1.824v.828zm8 5.039v.73c0 .364-.076.71-.227 1.035-.152.326-.36.616-.628.87a3.038 3.038 0 0 1-.936.605c-.357.15-.742.224-1.154.224a4.53 4.53 0 0 1-1.073-.133 2.632 2.632 0 0 1-.982-.464 2.611 2.611 0 0 1-.718-.853c-.188-.348-.282-.793-.282-1.335V8.718c0-.387.073-.746.218-1.077.146-.332.352-.619.618-.862.267-.243.585-.434.955-.572.37-.138.779-.207 1.227-.207.873 0 1.582.26 2.127.779.267.254.476.555.628.903.151.348.227.727.227 1.136v.663h-1.855v-.564a1.29 1.29 0 0 0-.309-.862c-.206-.243-.484-.364-.836-.364-.46 0-.767.13-.918.39-.152.259-.227.588-.227.985V15.1c0 .343.081.63.245.862.164.232.458.348.882.348.121 0 .251-.019.39-.058.14-.038.27-.102.392-.19.109-.089.2-.21.272-.365.073-.155.11-.348.11-.58v-.58H19z"/>
    </defs>
    <g fill="none" fill-rule="evenodd">
        <mask id="b" fill="#fff">
            <use xlink:href="#a"/>
        </mask>
        <use fill="#FFC100" xlink:href="#a"/>
        <g fill="#FF5000" mask="url(#b)">
            <path d="M0 0h24v24H0z"/>
        </g>
        <mask id="d" fill="#fff">
            <use xlink:href="#c"/>
        </mask>
        <use fill="#000" xlink:href="#c"/>
        <g fill="#FFF" mask="url(#d)">
            <path d="M0 0h24v24H0z"/>
        </g>
    </g>
</svg>
