<?xml version="1.0" encoding="utf-8"?>
<!-- Generator: Adobe Illustrator 15.1.0, SVG Export Plug-In . SVG Version: 6.00 Build 0)  -->
<!DOCTYPE svg PUBLIC "-//W3C//DTD SVG 1.1//EN" "http://www.w3.org/Graphics/SVG/1.1/DTD/svg11.dtd">
<svg version="1.1" id="Layer_1" xmlns="http://www.w3.org/2000/svg" xmlns:xlink="http://www.w3.org/1999/xlink" x="0px" y="0px"
	 width="16px" height="16px" viewBox="100 100 16 16" enable-background="new 100 100 16 16" xml:space="preserve">
<g>
	<g transform="translate(100 100)">
		<g>
			<path id="a_1_" fill="#FF5000" d="M2,0h12c1.104,0,2,0.896,2,2v12c0,1.104-0.896,2-2,2H2c-1.104,0-2-0.896-2-2V2
				C0,0.896,0.896,0,2,0z"/>
		</g>
		<defs>
			<filter id="Adobe_OpacityMaskFilter" filterUnits="userSpaceOnUse" x="0" y="0" width="16" height="16">
				<feColorMatrix  type="matrix" values="1 0 0 0 0  0 1 0 0 0  0 0 1 0 0  0 0 0 1 0"/>
			</filter>
		</defs>
		<mask maskUnits="userSpaceOnUse" x="0" y="0" width="16" height="16" id="b">
			<g filter="url(#Adobe_OpacityMaskFilter)">
				<path id="a" fill="#FFFFFF" d="M2,0h12c1.104,0,2,0.896,2,2v12c0,1.104-0.896,2-2,2H2c-1.104,0-2-0.896-2-2V2
					C0,0.896,0.896,0,2,0z"/>
			</g>
		</mask>
		<g mask="url(#b)">
			<path fill="#FF5000" d="M0,0h16v16H0V0z"/>
		</g>
		<g>
			<path id="c_1_" fill="#D8D8D8" d="M2,0h12c1.104,0,2,0.896,2,2v12c0,1.104-0.896,2-2,2H2c-1.104,0-2-0.896-2-2V2
				C0,0.896,0.896,0,2,0z M2,1C1.448,1,1,1.448,1,2v12c0,0.553,0.448,1,1,1h12c0.553,0,1-0.447,1-1V2c0-0.552-0.447-1-1-1H2z"/>
		</g>
		<defs>
			<filter id="Adobe_OpacityMaskFilter_1_" filterUnits="userSpaceOnUse" x="0" y="0" width="16" height="16">
				<feColorMatrix  type="matrix" values="1 0 0 0 0  0 1 0 0 0  0 0 1 0 0  0 0 0 1 0"/>
			</filter>
		</defs>
		<mask maskUnits="userSpaceOnUse" x="0" y="0" width="16" height="16" id="d">
			<g filter="url(#Adobe_OpacityMaskFilter_1_)">
				<path id="c" fill="#FFFFFF" d="M2,0h12c1.104,0,2,0.896,2,2v12c0,1.104-0.896,2-2,2H2c-1.104,0-2-0.896-2-2V2
					C0,0.896,0.896,0,2,0z M2,1C1.448,1,1,1.448,1,2v12c0,0.553,0.448,1,1,1h12c0.553,0,1-0.447,1-1V2c0-0.552-0.447-1-1-1H2z"/>
			</g>
		</mask>
		<g mask="url(#d)">
			<path fill="#FF5000" d="M0,0h16v16H0V0z"/>
		</g>
		<g>
			<path id="e_1_" fill="#FFFFFF" d="M13,5.265L6.897,12L3,7.884l1.222-1.297l2.553,2.099L12.063,4L13,5.265z"/>
		</g>
		<defs>
			<filter id="Adobe_OpacityMaskFilter_2_" filterUnits="userSpaceOnUse" x="0" y="0" width="16" height="16">
				<feColorMatrix  type="matrix" values="1 0 0 0 0  0 1 0 0 0  0 0 1 0 0  0 0 0 1 0"/>
			</filter>
		</defs>
		<mask maskUnits="userSpaceOnUse" x="0" y="0" width="16" height="16" id="f">
			<g filter="url(#Adobe_OpacityMaskFilter_2_)">
				<path id="e" fill="#FFFFFF" d="M13,5.265L6.897,12L3,7.884l1.222-1.297l2.553,2.099L12.063,4L13,5.265z"/>
			</g>
		</mask>
		<g mask="url(#f)">
			<path fill="#FFFFFF" d="M0,0h16v16H0V0z"/>
		</g>
	</g>
</g>
</svg>
