<?xml version="1.0" encoding="utf-8"?>
<!-- Generator: Adobe Illustrator 15.1.0, SVG Export Plug-In . SVG Version: 6.00 Build 0)  -->
<!DOCTYPE svg PUBLIC "-//W3C//DTD SVG 1.1//EN" "http://www.w3.org/Graphics/SVG/1.1/DTD/svg11.dtd">
<svg version="1.1" id="Layer_1" xmlns="http://www.w3.org/2000/svg" xmlns:xlink="http://www.w3.org/1999/xlink" x="0px" y="0px"
	 width="24px" height="24px" viewBox="100 100 24 24" enable-background="new 100 100 24 24" xml:space="preserve">
<g>
	<g transform="translate(100 100)">
		<defs>
			<filter id="Adobe_OpacityMaskFilter" filterUnits="userSpaceOnUse" x="0" y="0" width="24" height="24">
				<feColorMatrix  type="matrix" values="1 0 0 0 0  0 1 0 0 0  0 0 1 0 0  0 0 0 1 0"/>
			</filter>
		</defs>
		<mask maskUnits="userSpaceOnUse" x="0" y="0" width="24" height="24" id="b">
			<g filter="url(#Adobe_OpacityMaskFilter)">
				<circle id="a" fill="#FFFFFF" cx="12" cy="12" r="12"/>
			</g>
		</mask>
		<g mask="url(#b)">
			<path fill-opacity="0.4" d="M0,0h24v24H0V0z"/>
		</g>
		<g>
			<path id="c_1_" fill="#999999" d="M15,7c-1.25,0-2.257,0.69-3.012,1.588C11.255,7.66,10.25,7,9,7c-1.76,0-3,1.514-3,3.164
				c0,0.886,0.363,1.523,0.76,2.122l4.662,5.59c0.523,0.491,0.622,0.491,1.145,0l4.674-5.59C17.708,11.687,18,11.05,18,10.164
				C18,8.514,16.76,7,15,7"/>
		</g>
		<defs>
			<filter id="Adobe_OpacityMaskFilter_1_" filterUnits="userSpaceOnUse" x="0" y="0" width="24" height="24">
				<feColorMatrix  type="matrix" values="1 0 0 0 0  0 1 0 0 0  0 0 1 0 0  0 0 0 1 0"/>
			</filter>
		</defs>
		<mask maskUnits="userSpaceOnUse" x="0" y="0" width="24" height="24" id="d">
			<g filter="url(#Adobe_OpacityMaskFilter_1_)">
				<path id="c" fill="#FFFFFF" d="M15,7c-1.25,0-2.257,0.69-3.012,1.588C11.255,7.66,10.25,7,9,7c-1.76,0-3,1.514-3,3.164
					c0,0.886,0.363,1.523,0.76,2.122l4.662,5.59c0.523,0.491,0.622,0.491,1.145,0l4.674-5.59C17.708,11.687,18,11.05,18,10.164
					C18,8.514,16.76,7,15,7"/>
			</g>
		</mask>
		<g mask="url(#d)">
			<path fill="#FFFFFF" d="M0,0h24v24H0V0z"/>
		</g>
	</g>
</g>
</svg>
