<?xml version="1.0" encoding="utf-8"?>
<!-- Generator: Adobe Illustrator 15.1.0, SVG Export Plug-In . SVG Version: 6.00 Build 0)  -->
<!DOCTYPE svg PUBLIC "-//W3C//DTD SVG 1.1//EN" "http://www.w3.org/Graphics/SVG/1.1/DTD/svg11.dtd">
<svg version="1.1" id="Layer_1" xmlns="http://www.w3.org/2000/svg" xmlns:xlink="http://www.w3.org/1999/xlink" x="0px" y="0px"
	 width="16px" height="14.637px" viewBox="12 13 16 14.637" enable-background="new 12 13 16 14.637" xml:space="preserve">
<g>
	<g transform="translate(10 10)">
		<g>
			<path id="a_1_" d="M10,4.708C9.128,3.662,7.792,3,6.4,3C3.936,3,2,4.978,2,7.496c0,3.09,2.72,5.607,6.84,9.434l0.48,0.441
				c0.384,0.354,0.976,0.354,1.36-0.002l0.48-0.448C15.279,13.104,18,10.586,18,7.496C18,4.978,16.064,3,13.6,3
				C12.208,3,10.872,3.662,10,4.708z M16.6,7.496c0,2.476-2.539,4.828-6.394,8.4l-0.074,0.068c-0.077,0.071-0.195,0.071-0.272,0
				l-0.099-0.091c-3.83-3.558-6.36-5.906-6.36-8.378C3.4,5.76,4.717,4.4,6.4,4.4c0.951,0,1.895,0.451,2.524,1.204L9.845,6.71
				c0.07,0.085,0.196,0.097,0.281,0.026c0.01-0.008,0.019-0.017,0.026-0.026l0.921-1.106C11.704,4.851,12.646,4.4,13.6,4.4
				C15.281,4.4,16.6,5.76,16.6,7.496L16.6,7.496z"/>
		</g>
		<defs>
			<filter id="Adobe_OpacityMaskFilter" filterUnits="userSpaceOnUse" x="0" y="0" width="20" height="20">
				<feColorMatrix  type="matrix" values="1 0 0 0 0  0 1 0 0 0  0 0 1 0 0  0 0 0 1 0"/>
			</filter>
		</defs>
		<mask maskUnits="userSpaceOnUse" x="0" y="0" width="20" height="20" id="b">
			<g filter="url(#Adobe_OpacityMaskFilter)">
				<path id="a" fill="#FFFFFF" d="M10,4.708C9.128,3.662,7.792,3,6.4,3C3.936,3,2,4.978,2,7.496c0,3.09,2.72,5.607,6.84,9.434
					l0.48,0.441c0.384,0.354,0.976,0.354,1.36-0.002l0.48-0.448C15.279,13.104,18,10.586,18,7.496C18,4.978,16.064,3,13.6,3
					C12.208,3,10.872,3.662,10,4.708z M16.6,7.496c0,2.476-2.539,4.828-6.394,8.4l-0.074,0.068c-0.077,0.071-0.195,0.071-0.272,0
					l-0.099-0.091c-3.83-3.558-6.36-5.906-6.36-8.378C3.4,5.76,4.717,4.4,6.4,4.4c0.951,0,1.895,0.451,2.524,1.204L9.845,6.71
					c0.07,0.085,0.196,0.097,0.281,0.026c0.01-0.008,0.019-0.017,0.026-0.026l0.921-1.106C11.704,4.851,12.646,4.4,13.6,4.4
					C15.281,4.4,16.6,5.76,16.6,7.496L16.6,7.496z"/>
			</g>
		</mask>
		<g mask="url(#b)">
			<path fill="#E7E7E7" d="M0,0h20v20H0V0z"/>
		</g>
	</g>
</g>
</svg>
