<svg xmlns="http://www.w3.org/2000/svg" xmlns:xlink="http://www.w3.org/1999/xlink" width="40" height="40" viewBox="0 0 40 40">
    <defs>
        <path id="a" d="M10 4.708C9.128 3.662 7.792 3 6.4 3 3.936 3 2 4.978 2 7.496c0 3.09 2.72 5.608 6.84 9.433l.48.442a1 1 0 0 0 1.359-.002l.481-.448C15.28 13.104 18 10.586 18 7.496 18 4.978 16.064 3 13.6 3c-1.392 0-2.728.662-3.6 1.708zm6.6 2.788c0 2.476-2.539 4.828-6.394 8.4l-.074.069a.2.2 0 0 1-.272 0l-.099-.091c-3.83-3.557-6.36-5.906-6.36-8.378C3.4 5.76 4.717 4.4 6.4 4.4c.951 0 1.895.451 2.524 1.204l.921 1.106a.2.2 0 0 0 .308 0l.921-1.106c.63-.753 1.573-1.204 2.525-1.204 1.682 0 3 1.36 3 3.096z"/>
    </defs>
    <g fill="none" fill-rule="evenodd">
        <circle cx="20" cy="20" r="19.5" stroke="#FFF" opacity=".35"/>
        <g transform="translate(10 10)">
            <mask id="b" fill="#fff">
                <use xlink:href="#a"/>
            </mask>
            <use fill="#000" xlink:href="#a"/>
            <g fill="#E7E7E7" mask="url(#b)">
                <path d="M0 0h20v20H0z"/>
            </g>
        </g>
    </g>
</svg>
