<?xml version="1.0" encoding="utf-8"?>
<!-- Generator: Adobe Illustrator 15.1.0, SVG Export Plug-In . SVG Version: 6.00 Build 0)  -->
<!DOCTYPE svg PUBLIC "-//W3C//DTD SVG 1.1//EN" "http://www.w3.org/Graphics/SVG/1.1/DTD/svg11.dtd">
<svg version="1.1" id="Layer_1" xmlns="http://www.w3.org/2000/svg" xmlns:xlink="http://www.w3.org/1999/xlink" x="0px" y="0px"
	 width="15px" height="18.4px" viewBox="5 2 15 18.4" enable-background="new 5 2 15 18.4" xml:space="preserve">
<g>
	<g>
		<path id="a_1_" fill="#E7E7E7" d="M15.215,4.941c-1.281,1.541-2.74,1.289-2.74,1.289s-0.274-1.212,0.8-2.629
			C14.486,2.008,16.166,2,16.166,2S16.416,3.498,15.215,4.941z M17.521,11.751c0,2.785,2.479,3.744,2.479,3.744
			s-1.732,4.878-4.072,4.878c-1.076,0-1.912-0.725-3.045-0.725c-1.154,0-2.3,0.752-3.046,0.752C7.7,20.4,5,15.773,5,12.054
			c0-3.659,2.285-5.578,4.43-5.578c1.393,0,2.474,0.803,3.199,0.803c0.622,0,1.775-0.854,3.278-0.854c2.587,0,3.604,1.84,3.604,1.84
			S17.521,9.282,17.521,11.751z"/>
	</g>
</g>
</svg>
