<?xml version="1.0" encoding="utf-8"?>
<!-- Generator: Adobe Illustrator 15.1.0, SVG Export Plug-In . SVG Version: 6.00 Build 0)  -->
<!DOCTYPE svg PUBLIC "-//W3C//DTD SVG 1.1//EN" "http://www.w3.org/Graphics/SVG/1.1/DTD/svg11.dtd">
<svg version="1.1" id="Layer_1" xmlns="http://www.w3.org/2000/svg" xmlns:xlink="http://www.w3.org/1999/xlink" x="0px" y="0px"
	 width="16.004px" height="16.063px" viewBox="0 0 16.004 16.063" enable-background="new 0 0 16.004 16.063" xml:space="preserve">
<g>
	<g>
		<path id="a_1_" fill="#666666" d="M7.328,1.29C10.2,0.82,13.13,0.41,16.004,0v7.621c-2.873,0-5.804,0.058-8.676,0.058V1.29z
			 M0,7.738V2.286c2.169-0.353,4.338-0.646,6.566-0.88v6.272C4.338,7.679,2.169,7.738,0,7.738z M0,8.383
			c2.169,0,4.338,0.059,6.566,0v6.331C4.338,14.421,2.169,14.128,0,13.834V8.383z M7.328,14.831V8.441h8.676v7.622
			c-2.873-0.469-5.804-0.818-8.676-1.229V14.831z"/>
	</g>
</g>
</svg>
