<?xml version="1.0" encoding="utf-8"?>
<!-- Generator: Adobe Illustrator 15.1.0, SVG Export Plug-In . SVG Version: 6.00 Build 0)  -->
<!DOCTYPE svg PUBLIC "-//W3C//DTD SVG 1.1//EN" "http://www.w3.org/Graphics/SVG/1.1/DTD/svg11.dtd">
<svg version="1.1" id="Layer_1" xmlns="http://www.w3.org/2000/svg" xmlns:xlink="http://www.w3.org/1999/xlink" x="0px" y="0px"
	 width="16.004px" height="16.063px" viewBox="4 4 16.004 16.063" enable-background="new 4 4 16.004 16.063" xml:space="preserve">
<g>
	<g>
		<path id="a_1_" fill="#666666" d="M11.328,5.29C14.2,4.82,17.13,4.41,20.004,4v7.621c-2.873,0-5.804,0.058-8.676,0.058V5.29z
			 M4,11.738V6.286c2.169-0.352,4.338-0.645,6.566-0.88v6.273C8.338,11.679,6.169,11.738,4,11.738z M4,12.383
			c2.169,0,4.338,0.059,6.566,0v6.331C8.338,18.421,6.169,18.128,4,17.834V12.383z M11.328,18.831v-6.39h8.676v7.622
			c-2.873-0.469-5.804-0.819-8.676-1.229V18.831z"/>
	</g>
</g>
</svg>
