<?xml version="1.0" encoding="utf-8"?>
<!-- Generator: Adobe Illustrator 15.1.0, SVG Export Plug-In . SVG Version: 6.00 Build 0)  -->
<!DOCTYPE svg PUBLIC "-//W3C//DTD SVG 1.1//EN" "http://www.w3.org/Graphics/SVG/1.1/DTD/svg11.dtd">
<svg version="1.1" id="Layer_1" xmlns="http://www.w3.org/2000/svg" xmlns:xlink="http://www.w3.org/1999/xlink" x="0px" y="0px"
	 width="20px" height="20px" viewBox="100 100 20 20" enable-background="new 100 100 20 20" xml:space="preserve">
<g>
	<g transform="translate(100 100)">
		<circle fill-opacity="0.4" cx="10" cy="10" r="10"/>
		<g>
			<path id="a_1_" fill="#FFFFFF" d="M10,20C4.477,20,0,15.523,0,10C0,4.477,4.477,0,10,0c5.523,0,10,4.477,10,10
				C20,15.523,15.523,20,10,20z M10,18.889c4.91,0,8.89-3.979,8.89-8.889S14.91,1.11,10,1.11l0,0c-4.909,0-8.889,3.98-8.889,8.889
				S5.091,18.889,10,18.889L10,18.889z"/>
		</g>
		<g>
			<path id="c_1_" fill="#FFFFFF" d="M12.701,9.193L9.368,6.756C8.922,6.43,8.296,6.527,7.971,6.974
				c-0.125,0.171-0.193,0.378-0.193,0.59v4.874c0,0.552,0.448,1,1,0.999c0.212,0,0.418-0.067,0.59-0.192l3.333-2.438
				c0.445-0.326,0.543-0.952,0.217-1.397C12.857,9.327,12.783,9.253,12.701,9.193z"/>
		</g>
	</g>
</g>
</svg>
