<?xml version="1.0" encoding="utf-8"?>
<!-- Generator: Adobe Illustrator 15.1.0, SVG Export Plug-In . SVG Version: 6.00 Build 0)  -->
<!DOCTYPE svg PUBLIC "-//W3C//DTD SVG 1.1//EN" "http://www.w3.org/Graphics/SVG/1.1/DTD/svg11.dtd">
<svg version="1.1" id="Layer_1" xmlns="http://www.w3.org/2000/svg" xmlns:xlink="http://www.w3.org/1999/xlink" x="0px" y="0px"
	 width="64px" height="64px" viewBox="100 100 64 64" enable-background="new 100 100 64 64" xml:space="preserve">
<g>
	<g transform="translate(100 100)">
		<circle fill-opacity="0.4" cx="32" cy="32" r="32"/>
		<g>
			<path id="a_1_" fill="#FFFFFF" d="M32,64C14.327,64,0,49.673,0,32S14.327,0,32,0s32,14.327,32,32S49.673,64,32,64z M32,60.443
				c15.71,0,28.443-12.734,28.443-28.443C60.443,16.29,47.71,3.556,32,3.556S3.556,16.29,3.556,32S16.29,60.443,32,60.443z"/>
		</g>
		<defs>
			<filter id="Adobe_OpacityMaskFilter" filterUnits="userSpaceOnUse" x="0" y="0" width="64" height="64">
				<feColorMatrix  type="matrix" values="1 0 0 0 0  0 1 0 0 0  0 0 1 0 0  0 0 0 1 0"/>
			</filter>
		</defs>
		<mask maskUnits="userSpaceOnUse" x="0" y="0" width="64" height="64" id="b">
			<g filter="url(#Adobe_OpacityMaskFilter)">
				<path id="a" fill="#FFFFFF" d="M32,64C14.327,64,0,49.673,0,32S14.327,0,32,0s32,14.327,32,32S49.673,64,32,64z M32,60.443
					c15.71,0,28.443-12.734,28.443-28.443C60.443,16.29,47.71,3.556,32,3.556S3.556,16.29,3.556,32S16.29,60.443,32,60.443z"/>
			</g>
		</mask>
		<g mask="url(#b)">
			<path fill="#FFFFFF" d="M0,0h64v64H0V0z"/>
		</g>
		<g>
			<path id="c_1_" fill="#FFFFFF" d="M43.075,31.193l-16.596-12.13c-0.446-0.326-1.072-0.229-1.397,0.217
				c-0.125,0.171-0.192,0.378-0.192,0.59v24.26c0,0.552,0.448,1,1,0.999c0.212,0,0.419-0.066,0.59-0.191l16.596-12.131
				c0.445-0.326,0.542-0.952,0.216-1.397C43.23,31.327,43.158,31.253,43.075,31.193z"/>
		</g>
		<defs>
			<filter id="Adobe_OpacityMaskFilter_1_" filterUnits="userSpaceOnUse" x="0" y="0" width="64" height="64">
				<feColorMatrix  type="matrix" values="1 0 0 0 0  0 1 0 0 0  0 0 1 0 0  0 0 0 1 0"/>
			</filter>
		</defs>
		<mask maskUnits="userSpaceOnUse" x="0" y="0" width="64" height="64" id="d">
			<g filter="url(#Adobe_OpacityMaskFilter_1_)">
				<path id="c" fill="#FFFFFF" d="M43.075,31.193l-16.596-12.13c-0.446-0.326-1.072-0.229-1.397,0.217
					c-0.125,0.171-0.192,0.378-0.192,0.59v24.26c0,0.552,0.448,1,1,0.999c0.212,0,0.419-0.066,0.59-0.191l16.596-12.131
					c0.445-0.326,0.542-0.952,0.216-1.397C43.23,31.327,43.158,31.253,43.075,31.193z"/>
			</g>
		</mask>
		<g mask="url(#d)">
			<path fill="#FFFFFF" d="M0,0h64v64H0V0z"/>
		</g>
	</g>
</g>
</svg>
