<?xml version="1.0" encoding="utf-8"?>
<!-- Generator: Adobe Illustrator 15.1.0, SVG Export Plug-In . SVG Version: 6.00 Build 0)  -->
<!DOCTYPE svg PUBLIC "-//W3C//DTD SVG 1.1//EN" "http://www.w3.org/Graphics/SVG/1.1/DTD/svg11.dtd">
<svg version="1.1" id="Layer_1" xmlns="http://www.w3.org/2000/svg" xmlns:xlink="http://www.w3.org/1999/xlink" x="0px" y="0px"
	 width="48px" height="48px" viewBox="100 100 48 48" enable-background="new 100 100 48 48" xml:space="preserve">
<g>
	<path fill="#1C1C1C" d="M1407,5894H-33"/>
	<g transform="translate(100 100)">
		<circle fill-opacity="0.4" cx="24" cy="24" r="24"/>
		<g>
			<path id="a_1_" fill="#FFFFFF" d="M24,48C10.745,48,0,37.255,0,24S10.745,0,24,0s24,10.745,24,24S37.255,48,24,48z M24,45.333
				c11.781,0,21.333-9.55,21.333-21.333c0-11.782-9.55-21.333-21.333-21.333C12.218,2.667,2.667,12.217,2.667,24
				C2.667,35.782,12.217,45.333,24,45.333z"/>
		</g>
		<defs>
			<filter id="Adobe_OpacityMaskFilter" filterUnits="userSpaceOnUse" x="0" y="0" width="48" height="48">
				<feColorMatrix  type="matrix" values="1 0 0 0 0  0 1 0 0 0  0 0 1 0 0  0 0 0 1 0"/>
			</filter>
		</defs>
		<mask maskUnits="userSpaceOnUse" x="0" y="0" width="48" height="48" id="b">
			<g filter="url(#Adobe_OpacityMaskFilter)">
				<path id="a" fill="#FFFFFF" d="M24,48C10.745,48,0,37.255,0,24S10.745,0,24,0s24,10.745,24,24S37.255,48,24,48z M24,45.333
					c11.781,0,21.333-9.55,21.333-21.333c0-11.782-9.55-21.333-21.333-21.333C12.218,2.667,2.667,12.217,2.667,24
					C2.667,35.782,12.217,45.333,24,45.333z"/>
			</g>
		</mask>
		<g mask="url(#b)">
			<path fill="#FF5000" d="M0,0h48v48H0V0z"/>
		</g>
		<g>
			<path id="c_1_" fill="#FFFFFF" d="M32.029,23.193l-11.772-8.605c-0.446-0.326-1.071-0.229-1.397,0.218
				c-0.125,0.171-0.192,0.377-0.192,0.589v17.21c0,0.552,0.448,1,1,0.999c0.212,0,0.418-0.067,0.589-0.192l11.772-8.605
				c0.446-0.326,0.543-0.952,0.217-1.397C32.186,23.327,32.113,23.253,32.029,23.193z"/>
		</g>
		<defs>
			<filter id="Adobe_OpacityMaskFilter_1_" filterUnits="userSpaceOnUse" x="0" y="0" width="48" height="48">
				<feColorMatrix  type="matrix" values="1 0 0 0 0  0 1 0 0 0  0 0 1 0 0  0 0 0 1 0"/>
			</filter>
		</defs>
		<mask maskUnits="userSpaceOnUse" x="0" y="0" width="48" height="48" id="d">
			<g filter="url(#Adobe_OpacityMaskFilter_1_)">
				<path id="c" fill="#FFFFFF" d="M32.029,23.193l-11.772-8.605c-0.446-0.326-1.071-0.229-1.397,0.218
					c-0.125,0.171-0.192,0.377-0.192,0.589v17.21c0,0.552,0.448,1,1,0.999c0.212,0,0.418-0.067,0.589-0.192l11.772-8.605
					c0.446-0.326,0.543-0.952,0.217-1.397C32.186,23.327,32.113,23.253,32.029,23.193z"/>
			</g>
		</mask>
		<g mask="url(#d)">
			<path fill="#FF5000" d="M0,0h48v48H0V0z"/>
		</g>
	</g>
</g>
</svg>
