<?xml version="1.0" encoding="utf-8"?>
<!-- Generator: Adobe Illustrator 15.1.0, SVG Export Plug-In . SVG Version: 6.00 Build 0)  -->
<!DOCTYPE svg PUBLIC "-//W3C//DTD SVG 1.1//EN" "http://www.w3.org/Graphics/SVG/1.1/DTD/svg11.dtd">
<svg version="1.1" id="Layer_1" xmlns="http://www.w3.org/2000/svg" xmlns:xlink="http://www.w3.org/1999/xlink" x="0px" y="0px"
	 width="12px" height="12px" viewBox="106 106 12 12" enable-background="new 106 106 12 12" xml:space="preserve">
<g>
	<path fill="#1C1C1C" d="M931,1390H-93"/>
	<g transform="translate(100 100)">
		<path fill="#C1C1C1" d="M13,11h4c0.553,0,1,0.448,1,1c0,0.553-0.447,1-1,1h-4v4c0,0.553-0.447,1-1,1c-0.552,0-1-0.447-1-1v-4H7
			c-0.552,0-1-0.447-1-1c0-0.552,0.448-1,1-1h4V7c0-0.552,0.448-1,1-1c0.553,0,1,0.448,1,1V11z"/>
	</g>
</g>
</svg>
