<svg xmlns="http://www.w3.org/2000/svg" xmlns:xlink="http://www.w3.org/1999/xlink" width="12" height="12" viewBox="0 0 12 12">
    <defs>
        <path id="a" d="M7.045 5.981l3.697-3.697A.751.751 0 1 0 9.68 1.22L5.981 4.918 2.284 1.22A.751.751 0 1 0 1.22 2.284L4.918 5.98 1.22 9.68a.751.751 0 1 0 1.064 1.063L5.98 7.045l3.698 3.697a.75.75 0 0 0 1.063 0 .751.751 0 0 0 0-1.063L7.045 5.981z"/>
    </defs>
    <g fill="none" fill-rule="evenodd">
        <path fill-rule="nonzero" d="M0 0h12v12H0z"/>
        <mask id="b" fill="#fff">
            <use xlink:href="#a"/>
        </mask>
        <use fill="#999" xlink:href="#a"/>
        <g fill="#999" mask="url(#b)">
            <path d="M0 0h12v12H0z"/>
        </g>
    </g>
</svg>
