<svg xmlns="http://www.w3.org/2000/svg" xmlns:xlink="http://www.w3.org/1999/xlink" width="24" height="24" viewBox="0 0 24 24">
    <defs>
        <circle id="a" cx="12" cy="12" r="12"/>
        <path id="c" d="M8.111 7c-.611 0-1.105.484-1.105 1.076L7 18l2.222-2.151h6.667c.611 0 1.111-.484 1.111-1.076V8.076C17 7.484 16.5 7 15.889 7H8.11z"/>
        <path id="e" d="M12 24C5.373 24 0 18.627 0 12S5.373 0 12 0s12 5.373 12 12-5.373 12-12 12zm0-1c6.075 0 11-4.925 11-11S18.075 1 12 1 1 5.925 1 12s4.925 11 11 11z"/>
    </defs>
    <g fill="none" fill-rule="evenodd">
        <mask id="b" fill="#fff">
            <use xlink:href="#a"/>
        </mask>
        <g fill="#000" fill-opacity=".4" mask="url(#b)">
            <path d="M0 0h24v24H0z"/>
        </g>
        <mask id="d" fill="#fff">
            <use xlink:href="#c"/>
        </mask>
        <use fill="#999" xlink:href="#c"/>
        <g fill="#FFF" mask="url(#d)">
            <path d="M0 0h24v24H0z"/>
        </g>
    </g>
</svg>
