<svg xmlns="http://www.w3.org/2000/svg" xmlns:xlink="http://www.w3.org/1999/xlink" width="24" height="24" viewBox="0 0 24 24">
    <defs>
        <circle id="a" cx="12" cy="12" r="12"/>
        <path id="c" d="M8 6c-.55 0-.996.456-.996 1.002L7 17.792c0 .115.07.166.166.108l4.668-2.8a.349.349 0 0 1 .332 0l4.664 2.8c.091.055.166.01.166-.108L17 7.002C17 6.45 16.545 6 16.005 6H7.999z"/>
        <path id="e" d="M12 24C5.373 24 0 18.627 0 12S5.373 0 12 0s12 5.373 12 12-5.373 12-12 12zm0-1c6.075 0 11-4.925 11-11S18.075 1 12 1 1 5.925 1 12s4.925 11 11 11z"/>
    </defs>
    <g fill="none" fill-rule="evenodd">
        <mask id="b" fill="#fff">
            <use xlink:href="#a"/>
        </mask>
        <g fill="#FFF" mask="url(#b)">
            <path d="M0 0h24v24H0z"/>
        </g>
        <mask id="d" fill="#fff">
            <use xlink:href="#c"/>
        </mask>
        <use fill="#999" xlink:href="#c"/>
        <g fill="#E7E7E7" mask="url(#d)">
            <path d="M0 0h24v24H0z"/>
        </g>
        <mask id="f" fill="#fff">
            <use xlink:href="#e"/>
        </mask>
        <g fill="#E7E7E7" mask="url(#f)">
            <path d="M0 0h24v24H0z"/>
        </g>
    </g>
</svg>
