<?xml version="1.0" encoding="utf-8"?>
<!-- Generator: Adobe Illustrator 15.1.0, SVG Export Plug-In . SVG Version: 6.00 Build 0)  -->
<!DOCTYPE svg PUBLIC "-//W3C//DTD SVG 1.1//EN" "http://www.w3.org/Graphics/SVG/1.1/DTD/svg11.dtd">
<svg version="1.1" id="Layer_1" xmlns="http://www.w3.org/2000/svg" xmlns:xlink="http://www.w3.org/1999/xlink" x="0px" y="0px"
	 width="21.09px" height="19px" viewBox="1.909 3 21.09 19" enable-background="new 1.909 3 21.09 19" xml:space="preserve">
<g>
	<g>
		<path id="a_1_" fill="#666666" d="M10.489,17.479c3.31,0,5.992-2.682,5.992-5.992c0-3.309-2.682-5.992-5.992-5.992
			c-3.309,0-5.992,2.683-5.992,5.992C4.497,14.797,7.18,17.479,10.489,17.479z M18.07,15.307l4.563,4.563
			c0.487,0.487,0.487,1.277,0,1.765s-1.277,0.487-1.765,0l-4.264-4.262c-1.598,1.665-3.808,2.606-6.117,2.603
			c-4.688,0.051-8.528-3.707-8.58-8.395C1.858,6.892,5.617,3.051,10.305,3c0.062,0,0.123,0,0.184,0c4.688,0,8.489,3.799,8.49,8.487
			C18.979,12.813,18.668,14.121,18.07,15.307L18.07,15.307z"/>
	</g>
</g>
</svg>
