<svg xmlns="http://www.w3.org/2000/svg" xmlns:xlink="http://www.w3.org/1999/xlink" width="40" height="40" viewBox="0 0 40 40">
    <defs>
        <path id="a" d="M15 16.75a1.75 1.75 0 1 1 0-3.5 1.75 1.75 0 0 1 0 3.5m-10-5a1.75 1.75 0 1 1 0-3.5 1.75 1.75 0 0 1 0 3.5m10-8.5a1.75 1.75 0 1 1-.001 3.501A1.75 1.75 0 0 1 15 3.25M15 12c-.994 0-1.868.489-2.414 1.233l-4.729-2.364C7.941 10.593 8 10.305 8 10c0-.305-.059-.593-.143-.869l4.729-2.365A2.987 2.987 0 0 0 15 8a3 3 0 1 0-3-3c0 .305.059.592.143.869L7.414 8.233A2.989 2.989 0 0 0 5 7a3 3 0 1 0 0 6c.994 0 1.868-.489 2.414-1.233l4.729 2.364A2.967 2.967 0 0 0 12 15a3 3 0 1 0 3-3"/>
    </defs>
    <g fill="none" fill-rule="evenodd">
        <circle cx="20" cy="20" r="19.5" stroke="#FFF" opacity=".102"/>
        <g transform="translate(10 10)">
            <mask id="b" fill="#fff">
                <use xlink:href="#a"/>
            </mask>
            <use fill="#000" xlink:href="#a"/>
            <g fill="#666" mask="url(#b)">
                <path d="M0 0h20v20H0z"/>
            </g>
        </g>
    </g>
</svg>
