<?xml version="1.0" encoding="utf-8"?>
<!-- Generator: Adobe Illustrator 15.1.0, SVG Export Plug-In . SVG Version: 6.00 Build 0)  -->
<!DOCTYPE svg PUBLIC "-//W3C//DTD SVG 1.1//EN" "http://www.w3.org/Graphics/SVG/1.1/DTD/svg11.dtd">
<svg version="1.1" id="Layer_1" xmlns="http://www.w3.org/2000/svg" xmlns:xlink="http://www.w3.org/1999/xlink" x="0px" y="0px"
	 width="36px" height="36px" viewBox="100 100 36 36" enable-background="new 100 100 36 36" xml:space="preserve">
<g>
	<g transform="translate(100 100)">
		<defs>
			<filter id="Adobe_OpacityMaskFilter" filterUnits="userSpaceOnUse" x="0" y="0" width="36" height="36">
				<feColorMatrix  type="matrix" values="1 0 0 0 0  0 1 0 0 0  0 0 1 0 0  0 0 0 1 0"/>
			</filter>
		</defs>
		<mask maskUnits="userSpaceOnUse" x="0" y="0" width="36" height="36" id="b">
			<g filter="url(#Adobe_OpacityMaskFilter)">
				<circle id="a" fill="#FFFFFF" cx="18" cy="18" r="18"/>
			</g>
		</mask>
		<g mask="url(#b)">
			<path fill-opacity="0.4" d="M0,0h36v36H0V0z"/>
		</g>
		<g>
			<path id="c_1_" fill="#CCCCCC" d="M18,23.783l4.997,3.185c0.233,0.149,0.542,0.081,0.69-0.152
				c0.071-0.112,0.096-0.248,0.066-0.378l-1.336-6.045l4.477-4.097c0.203-0.187,0.217-0.503,0.03-0.707
				c-0.084-0.091-0.199-0.148-0.323-0.159l-5.867-0.526l-2.271-5.658c-0.103-0.256-0.394-0.381-0.65-0.278
				c-0.127,0.051-0.227,0.151-0.278,0.278l-2.27,5.658L9.398,15.43c-0.275,0.025-0.478,0.268-0.453,0.543
				c0.011,0.124,0.068,0.239,0.16,0.323l4.477,4.097l-1.336,6.045c-0.06,0.27,0.11,0.537,0.379,0.598
				c0.13,0.028,0.266,0.004,0.377-0.067L18,23.783z"/>
		</g>
		<defs>
			<filter id="Adobe_OpacityMaskFilter_1_" filterUnits="userSpaceOnUse" x="0" y="0" width="36" height="36">
				<feColorMatrix  type="matrix" values="1 0 0 0 0  0 1 0 0 0  0 0 1 0 0  0 0 0 1 0"/>
			</filter>
		</defs>
		<mask maskUnits="userSpaceOnUse" x="0" y="0" width="36" height="36" id="d">
			<g filter="url(#Adobe_OpacityMaskFilter_1_)">
				<path id="c" fill="#FFFFFF" d="M18,23.783l4.997,3.185c0.233,0.149,0.542,0.081,0.69-0.152c0.071-0.112,0.096-0.248,0.066-0.378
					l-1.336-6.045l4.477-4.097c0.203-0.187,0.217-0.503,0.03-0.707c-0.084-0.091-0.199-0.148-0.323-0.159l-5.867-0.526l-2.271-5.658
					c-0.103-0.256-0.394-0.381-0.65-0.278c-0.127,0.051-0.227,0.151-0.278,0.278l-2.27,5.658L9.398,15.43
					c-0.275,0.025-0.478,0.268-0.453,0.543c0.011,0.124,0.068,0.239,0.16,0.323l4.477,4.097l-1.336,6.045
					c-0.06,0.27,0.11,0.537,0.379,0.598c0.13,0.028,0.266,0.004,0.377-0.067L18,23.783z"/>
			</g>
		</mask>
		<g mask="url(#d)">
			<path fill="#FFFFFF" d="M0,0h36v36H0V0z"/>
		</g>
	</g>
</g>
</svg>
