<?xml version="1.0" encoding="utf-8"?>
<!-- Generator: Adobe Illustrator 15.1.0, SVG Export Plug-In . SVG Version: 6.00 Build 0)  -->
<!DOCTYPE svg PUBLIC "-//W3C//DTD SVG 1.1//EN" "http://www.w3.org/Graphics/SVG/1.1/DTD/svg11.dtd">
<svg version="1.1" id="Layer_1" xmlns="http://www.w3.org/2000/svg" xmlns:xlink="http://www.w3.org/1999/xlink" x="0px" y="0px"
	 width="24px" height="24px" viewBox="100 100 24 24" enable-background="new 100 100 24 24" xml:space="preserve">
<g>
	<g transform="translate(100 100)">
		<defs>
			<filter id="Adobe_OpacityMaskFilter" filterUnits="userSpaceOnUse" x="0" y="0" width="24" height="24">
				<feColorMatrix  type="matrix" values="1 0 0 0 0  0 1 0 0 0  0 0 1 0 0  0 0 0 1 0"/>
			</filter>
		</defs>
		<mask maskUnits="userSpaceOnUse" x="0" y="0" width="24" height="24" id="b">
			<g filter="url(#Adobe_OpacityMaskFilter)">
				<circle id="a" fill="#FFFFFF" cx="12" cy="12" r="12"/>
			</g>
		</mask>
		<g mask="url(#b)">
			<path fill-opacity="0.4" d="M0,0h24v24H0V0z"/>
		</g>
		<g>
			<path id="c_1_" fill="#CCCCCC" d="M12,15.855l2.993,1.908c0.232,0.148,0.542,0.08,0.69-0.153
				c0.071-0.112,0.096-0.247,0.066-0.378l-0.805-3.639l2.705-2.474c0.205-0.187,0.219-0.503,0.032-0.707
				c-0.085-0.092-0.2-0.149-0.325-0.161l-3.535-0.317L12.464,6.55c-0.103-0.256-0.394-0.38-0.65-0.277
				c-0.127,0.051-0.227,0.151-0.278,0.277l-1.36,3.386l-3.534,0.317c-0.275,0.024-0.478,0.268-0.454,0.542
				c0.011,0.125,0.068,0.24,0.161,0.325l2.705,2.474L8.25,17.234c-0.059,0.27,0.111,0.536,0.381,0.596
				c0.129,0.027,0.265,0.004,0.376-0.066L12,15.855z"/>
		</g>
		<defs>
			<filter id="Adobe_OpacityMaskFilter_1_" filterUnits="userSpaceOnUse" x="0" y="0" width="24" height="24">
				<feColorMatrix  type="matrix" values="1 0 0 0 0  0 1 0 0 0  0 0 1 0 0  0 0 0 1 0"/>
			</filter>
		</defs>
		<mask maskUnits="userSpaceOnUse" x="0" y="0" width="24" height="24" id="d">
			<g filter="url(#Adobe_OpacityMaskFilter_1_)">
				<path id="c" fill="#FFFFFF" d="M12,15.855l2.993,1.908c0.232,0.148,0.542,0.08,0.69-0.153c0.071-0.112,0.096-0.247,0.066-0.378
					l-0.805-3.639l2.705-2.474c0.205-0.187,0.219-0.503,0.032-0.707c-0.085-0.092-0.2-0.149-0.325-0.161l-3.535-0.317L12.464,6.55
					c-0.103-0.256-0.394-0.38-0.65-0.277c-0.127,0.051-0.227,0.151-0.278,0.277l-1.36,3.386l-3.534,0.317
					c-0.275,0.024-0.478,0.268-0.454,0.542c0.011,0.125,0.068,0.24,0.161,0.325l2.705,2.474L8.25,17.234
					c-0.059,0.27,0.111,0.536,0.381,0.596c0.129,0.027,0.265,0.004,0.376-0.066L12,15.855z"/>
			</g>
		</mask>
		<g mask="url(#d)">
			<path fill="#FFFFFF" d="M0,0h24v24H0V0z"/>
		</g>
	</g>
</g>
</svg>
