<?xml version="1.0" encoding="utf-8"?>
<!-- Generator: Adobe Illustrator 15.1.0, SVG Export Plug-In . SVG Version: 6.00 Build 0)  -->
<!DOCTYPE svg PUBLIC "-//W3C//DTD SVG 1.1//EN" "http://www.w3.org/Graphics/SVG/1.1/DTD/svg11.dtd">
<svg version="1.1" id="Layer_1" xmlns="http://www.w3.org/2000/svg" xmlns:xlink="http://www.w3.org/1999/xlink" x="0px" y="0px"
	 width="24px" height="24px" viewBox="100 100 24 24" enable-background="new 100 100 24 24" xml:space="preserve">
<g>
	<path fill="#1C1C1C" d="M871,684H-153"/>
	<g transform="translate(100 100)">
		<defs>
			<filter id="Adobe_OpacityMaskFilter" filterUnits="userSpaceOnUse" x="0" y="0" width="24" height="24">
				<feColorMatrix  type="matrix" values="1 0 0 0 0  0 1 0 0 0  0 0 1 0 0  0 0 0 1 0"/>
			</filter>
		</defs>
		<mask maskUnits="userSpaceOnUse" x="0" y="0" width="24" height="24" id="b">
			<g filter="url(#Adobe_OpacityMaskFilter)">
				<circle id="a" fill="#FFFFFF" cx="12" cy="12" r="12"/>
			</g>
		</mask>
		<g mask="url(#b)">
			<path fill-opacity="0.4" d="M0,0h24v24H0V0z"/>
		</g>
		<g>
			<path id="c_1_" fill="#069FEE" d="M7,17c0.553,0,1.001-0.438,1.001-1.003v-4.994C8.002,10.451,7.556,10.001,7.004,10
				c-0.001,0-0.002,0-0.003,0C6.448,10,6,10.438,6,11.003v4.994C5.999,16.549,6.445,16.998,6.997,17C6.998,17,6.999,17,7,17z
				 M18,10.95c0-0.605-0.506-1.1-1.125-1.1h-3.55l0.534-2.513l0.018-0.176c-0.001-0.22-0.09-0.43-0.248-0.583L13.033,6L9.332,9.624
				C9.119,9.826,8.999,10.106,9,10.4v5.5c0,0.604,0.506,1.1,1.125,1.1h5.063c0.467,0,0.867-0.275,1.035-0.671l1.699-3.878
				C17.973,12.325,18,12.193,18,12.05V11l-0.006-0.006L18,10.95z"/>
		</g>
		<defs>
			<filter id="Adobe_OpacityMaskFilter_1_" filterUnits="userSpaceOnUse" x="0" y="0" width="24" height="24">
				<feColorMatrix  type="matrix" values="1 0 0 0 0  0 1 0 0 0  0 0 1 0 0  0 0 0 1 0"/>
			</filter>
		</defs>
		<mask maskUnits="userSpaceOnUse" x="0" y="0" width="24" height="24" id="d">
			<g filter="url(#Adobe_OpacityMaskFilter_1_)">
				<path id="c" fill="#FFFFFF" d="M7,17c0.553,0,1.001-0.438,1.001-1.003v-4.994C8.002,10.451,7.556,10.001,7.004,10
					c-0.001,0-0.002,0-0.003,0C6.448,10,6,10.438,6,11.003v4.994C5.999,16.549,6.445,16.998,6.997,17C6.998,17,6.999,17,7,17z
					 M18,10.95c0-0.605-0.506-1.1-1.125-1.1h-3.55l0.534-2.513l0.018-0.176c-0.001-0.22-0.09-0.43-0.248-0.583L13.033,6L9.332,9.624
					C9.119,9.826,8.999,10.106,9,10.4v5.5c0,0.604,0.506,1.1,1.125,1.1h5.063c0.467,0,0.867-0.275,1.035-0.671l1.699-3.878
					C17.973,12.325,18,12.193,18,12.05V11l-0.006-0.006L18,10.95z"/>
			</g>
		</mask>
		<g mask="url(#d)">
			<path fill="#FFFFFF" d="M0,0h24v24H0V0z"/>
		</g>
	</g>
</g>
</svg>
