<?xml version="1.0" encoding="utf-8"?>
<!-- Generator: Adobe Illustrator 15.1.0, SVG Export Plug-In . SVG Version: 6.00 Build 0)  -->
<!DOCTYPE svg PUBLIC "-//W3C//DTD SVG 1.1//EN" "http://www.w3.org/Graphics/SVG/1.1/DTD/svg11.dtd">
<svg version="1.1" id="Layer_1" xmlns="http://www.w3.org/2000/svg" xmlns:xlink="http://www.w3.org/1999/xlink" x="0px" y="0px"
	 width="36px" height="36px" viewBox="100 100 36 36" enable-background="new 100 100 36 36" xml:space="preserve">
<g>
	<g transform="translate(100 100)">
		<defs>
			<filter id="Adobe_OpacityMaskFilter" filterUnits="userSpaceOnUse" x="0" y="0" width="36" height="36">
				<feColorMatrix  type="matrix" values="1 0 0 0 0  0 1 0 0 0  0 0 1 0 0  0 0 0 1 0"/>
			</filter>
		</defs>
		<mask maskUnits="userSpaceOnUse" x="0" y="0" width="36" height="36" id="b">
			<g filter="url(#Adobe_OpacityMaskFilter)">
				<circle id="a" fill="#FFFFFF" cx="18" cy="18" r="18"/>
			</g>
		</mask>
		<g mask="url(#b)">
			<path fill-opacity="0.4" d="M0,0h36v36H0V0z"/>
		</g>
		<g>
			<path id="c_1_" fill="#069FEE" d="M11.002,25.5c0.552,0,1-0.451,1-1.007v-8.486c0.004-0.552-0.44-1.003-0.993-1.007
				c-0.002,0-0.005,0-0.007,0H10c-0.553,0-1,0.451-1,1.007v8.486c-0.004,0.552,0.441,1.003,0.993,1.007c0.002,0,0.004,0,0.007,0
				H11.002z M27,16.425c0-0.908-0.76-1.65-1.688-1.65h-5.324l0.802-3.77l0.024-0.264c0-0.338-0.143-0.652-0.369-0.875L19.55,9
				l-5.552,5.437c-0.312,0.297-0.498,0.71-0.498,1.163v8.25c0,0.907,0.76,1.65,1.688,1.65h7.593c0.699,0,1.3-0.413,1.553-1.006
				l2.548-5.817C26.958,18.487,27,18.29,27,18.075v-1.576l-0.008-0.008L27,16.425z"/>
		</g>
		<defs>
			<filter id="Adobe_OpacityMaskFilter_1_" filterUnits="userSpaceOnUse" x="0" y="0" width="36" height="36">
				<feColorMatrix  type="matrix" values="1 0 0 0 0  0 1 0 0 0  0 0 1 0 0  0 0 0 1 0"/>
			</filter>
		</defs>
		<mask maskUnits="userSpaceOnUse" x="0" y="0" width="36" height="36" id="d">
			<g filter="url(#Adobe_OpacityMaskFilter_1_)">
				<path id="c" fill="#FFFFFF" d="M11.002,25.5c0.552,0,1-0.451,1-1.007v-8.486c0.004-0.552-0.44-1.003-0.993-1.007
					c-0.002,0-0.005,0-0.007,0H10c-0.553,0-1,0.451-1,1.007v8.486c-0.004,0.552,0.441,1.003,0.993,1.007c0.002,0,0.004,0,0.007,0
					H11.002z M27,16.425c0-0.908-0.76-1.65-1.688-1.65h-5.324l0.802-3.77l0.024-0.264c0-0.338-0.143-0.652-0.369-0.875L19.55,9
					l-5.552,5.437c-0.312,0.297-0.498,0.71-0.498,1.163v8.25c0,0.907,0.76,1.65,1.688,1.65h7.593c0.699,0,1.3-0.413,1.553-1.006
					l2.548-5.817C26.958,18.487,27,18.29,27,18.075v-1.576l-0.008-0.008L27,16.425z"/>
			</g>
		</mask>
		<g mask="url(#d)">
			<path fill="#FFFFFF" d="M0,0h36v36H0V0z"/>
		</g>
	</g>
</g>
</svg>
