<?xml version="1.0" encoding="utf-8"?>
<!-- Generator: Adobe Illustrator 16.0.3, SVG Export Plug-In . SVG Version: 6.00 Build 0)  -->
<!DOCTYPE svg PUBLIC "-//W3C//DTD SVG 1.1//EN" "http://www.w3.org/Graphics/SVG/1.1/DTD/svg11.dtd">
<svg version="1.1" id="Layer_1" xmlns="http://www.w3.org/2000/svg" xmlns:xlink="http://www.w3.org/1999/xlink" x="0px" y="0px"
	 width="128px" height="128px" viewBox="-248 0 128 128" enable-background="new -248 0 128 128" xml:space="preserve">
<g>
	<g>
		
			<line fill="none" stroke="#FFFFFF" stroke-width="2" stroke-miterlimit="10" x1="-183.322" y1="75.266" x2="-183.322" y2="86.992"/>
		<g>
			<polygon fill="#FFFFFF" stroke="#FFFFFF" stroke-miterlimit="10" points="-189.554,82.117 -188.408,81.049 -183.16,86.695 
				-177.911,81.049 -176.766,82.117 -183.16,88.992 			"/>
		</g>
	</g>
	
		<rect x="-200.521" y="64.321" fill="none" stroke="#FFFFFF" stroke-width="2" stroke-miterlimit="10" width="34.397" height="35.18"/>
</g>
<g>
	<g>
		
			<line fill="none" stroke="#FFFFFF" stroke-width="2" stroke-miterlimit="10" x1="-183.322" y1="48.468" x2="-183.322" y2="36.742"/>
		<g>
			<polygon fill="#FFFFFF" stroke="#FFFFFF" stroke-miterlimit="10" points="-177.091,41.617 -178.236,42.685 -183.484,37.038 
				-188.733,42.685 -189.879,41.617 -183.484,34.742 			"/>
		</g>
	</g>
	
		<rect x="-200.521" y="24.233" fill="none" stroke="#FFFFFF" stroke-width="2" stroke-miterlimit="10" width="34.397" height="35.18"/>
</g>
<g>
	<g>
		
			<line fill="none" stroke="#FFFFFF" stroke-width="2" stroke-miterlimit="10" x1="-149.879" y1="81.911" x2="-138.153" y2="81.911"/>
		<g>
			<polygon fill="#FFFFFF" stroke="#FFFFFF" stroke-miterlimit="10" points="-143.028,88.142 -144.095,86.997 -138.449,81.749 
				-144.095,76.499 -143.028,75.354 -136.153,81.749 			"/>
		</g>
	</g>
	
		<rect x="-160.824" y="64.712" fill="none" stroke="#FFFFFF" stroke-width="2" stroke-miterlimit="10" width="35.18" height="34.397"/>
</g>
<g>
	<g>
		
			<line fill="none" stroke="#FFFFFF" stroke-width="2" stroke-miterlimit="10" x1="-215.984" y1="81.911" x2="-227.71" y2="81.911"/>
		<g>
			<polygon fill="#FFFFFF" stroke="#FFFFFF" stroke-miterlimit="10" points="-222.834,75.352 -221.767,76.498 -227.415,81.746 
				-221.767,86.995 -222.834,88.14 -229.71,81.746 			"/>
		</g>
	</g>
	<rect x="-241" y="64.712" fill="none" stroke="#FFFFFF" stroke-width="2" stroke-miterlimit="10" width="35.179" height="34.397"/>
</g>
</svg>
