<?xml version="1.0" encoding="utf-8"?>
<!-- Generator: Adobe Illustrator 16.0.3, SVG Export Plug-In . SVG Version: 6.00 Build 0)  -->
<!DOCTYPE svg PUBLIC "-//W3C//DTD SVG 1.1//EN" "http://www.w3.org/Graphics/SVG/1.1/DTD/svg11.dtd">
<svg version="1.1" id="Layer_1" xmlns="http://www.w3.org/2000/svg" xmlns:xlink="http://www.w3.org/1999/xlink" x="0px" y="0px"
	 width="90px" height="100px" viewBox="0 0 90 100" enable-background="new 0 0 90 100" xml:space="preserve">
<rect x="25.25" y="33.542" fill="none" stroke="#FFFFFF" stroke-width="2" stroke-miterlimit="10" width="39.5" height="32.916"/>
<path fill="none" stroke="#FFFFFF" stroke-miterlimit="10" d="M85.27,35.492H64.75v29.016h20.52C87.346,60.031,88.5,55.136,88.5,50
	S87.346,39.969,85.27,35.492z"/>
<path fill="none" stroke="#FFFFFF" stroke-miterlimit="10" d="M25.25,35.492H4.731C2.654,39.969,1.5,44.864,1.5,50
	s1.154,10.031,3.231,14.508H25.25V35.492z"/>
<g>
	<line fill="none" stroke="#FFFFFF" stroke-width="2" stroke-miterlimit="10" x1="45" y1="74.584" x2="45" y2="86"/>
	<g>
		<polygon fill="#FFFFFF" points="40.91,77.898 41.643,78.58 44.999,74.969 48.355,78.58 49.089,77.898 44.999,73.5 		"/>
	</g>
</g>
<g>
	<line fill="none" stroke="#FFFFFF" stroke-width="2" stroke-miterlimit="10" x1="45" y1="13" x2="45" y2="24.416"/>
	<g>
		<polygon fill="#FFFFFF" points="40.91,21.102 41.643,20.42 44.999,24.032 48.355,20.42 49.089,21.102 44.999,25.5 		"/>
	</g>
</g>
<circle fill="none" stroke="#FFFFFF" stroke-width="2" stroke-miterlimit="10" cx="45" cy="50" r="43.5"/>
</svg>
