<?xml version="1.0" encoding="utf-8"?>
<!-- Generator: Adobe Illustrator 16.0.3, SVG Export Plug-In . SVG Version: 6.00 Build 0)  -->
<!DOCTYPE svg PUBLIC "-//W3C//DTD SVG 1.1//EN" "http://www.w3.org/Graphics/SVG/1.1/DTD/svg11.dtd">
<svg version="1.1" id="Layer_1" xmlns="http://www.w3.org/2000/svg" xmlns:xlink="http://www.w3.org/1999/xlink" x="0px" y="0px"
	 width="90px" height="100px" viewBox="0 0 90 100" enable-background="new 0 0 90 100" xml:space="preserve">
<rect x="12.35" y="22.792" fill="none" stroke="#FFFFFF" stroke-width="2" stroke-miterlimit="10" width="65.3" height="54.416"/>
<g>
	<line fill="none" stroke="#FFFFFF" stroke-width="2" stroke-miterlimit="10" x1="45" y1="29.833" x2="45" y2="41.25"/>
	<g>
		<polygon fill="#FFFFFF" points="40.911,33.148 41.644,33.83 45,30.218 48.356,33.83 49.089,33.148 45,28.75 		"/>
	</g>
</g>
<g>
	<line fill="none" stroke="#FFFFFF" stroke-width="2" stroke-miterlimit="10" x1="45" y1="59.75" x2="45" y2="71.166"/>
	<g>
		<polygon fill="#FFFFFF" points="40.911,67.852 41.643,67.17 45,70.781 48.355,67.17 49.089,67.852 45,72.25 		"/>
	</g>
</g>
<g>
	<line fill="none" stroke="#FFFFFF" stroke-width="2" stroke-miterlimit="10" x1="65.666" y1="50.5" x2="54.25" y2="50.5"/>
	<g>
		<polygon fill="#FFFFFF" points="62.352,46.41 61.67,47.143 65.281,50.499 61.67,53.855 62.352,54.588 66.75,50.499 		"/>
	</g>
</g>
<g>
	<line fill="none" stroke="#FFFFFF" stroke-width="2" stroke-miterlimit="10" x1="35.749" y1="50.5" x2="24.333" y2="50.5"/>
	<g>
		<polygon fill="#FFFFFF" points="27.647,46.41 28.329,47.142 24.718,50.499 28.329,53.854 27.647,54.588 23.249,50.499 		"/>
	</g>
</g>
<circle fill="none" stroke="#FFFFFF" stroke-width="2" stroke-miterlimit="10" cx="45" cy="50" r="43.5"/>
</svg>
